M48
;Layer_Color=9474304
;FILE_FORMAT=4:4
METRIC,LZ
;TYPE=PLATED
T01F00S00C0.7620
T02F00S00C0.8000
T03F00S00C0.8500
T04F00S00C1.0000
T05F00S00C1.2000
T06F00S00C3.0000
%
T01
X009511Y005365
Y005619
Y005873
X011289
Y005619
Y006127
Y006381
X009511
Y006635
Y006127
T02
X00885Y00175
Y00195
X0053Y0041
X0051
X005Y0055
X0048
X00885Y0064
Y0066
T03
X00355Y0041
X00445
X0041Y00525
X0033
Y00615
X0041
T04
X00637854Y00089691
Y00115091
Y00140491
Y00165891
Y00191291
X0079Y001914
Y00166
Y001406
Y001152
Y00089546
Y002168
Y002422
Y002676
Y00293
Y003184
Y003438
Y003692
Y003946
Y0042
Y004454
Y004708
Y004962
Y005216
Y00547
Y005724
X00637854Y00572291
Y00546891
Y00521491
Y00496091
Y00470691
Y00445291
Y00419891
Y00394491
Y00369091
Y00343691
Y00318291
Y00292891
Y00267491
Y00242091
Y00216691
X003114Y0041
X002886
T05
X005Y00123
Y001484
Y001738
X009854Y0011
X010108
X010362
X010616
X01087
X011124
X011378
X011632
X011624Y0039
X01137
X011116
X010862
X010608
X010354
X0101
X009846
X005Y003262
Y003008
Y002754
Y0025
Y002246
Y001992
X002Y005
Y005254
Y005508
X008Y00725
Y007504
Y007758
T06
X0005Y0005
X01325
X0005Y008
X01325Y008
M30
