G04*
G04 #@! TF.GenerationSoftware,Altium Limited,Altium Designer,24.1.2 (44)*
G04*
G04 Layer_Color=2752767*
%FSLAX44Y44*%
%MOMM*%
G71*
G04*
G04 #@! TF.SameCoordinates,0D7877E6-725A-4D16-A8B8-B6347F423BC3*
G04*
G04*
G04 #@! TF.FilePolarity,Positive*
G04*
G01*
G75*
%ADD49C,0.1270*%
%ADD50C,0.1693*%
D49*
X500000Y143320D02*
X494920Y153480D01*
X505080D01*
X500000Y143320D01*
Y168720D02*
X494920Y178880D01*
X505080D01*
X500000Y168720D01*
Y194120D02*
X494920Y204280D01*
X505080D01*
X500000Y194120D01*
Y219520D02*
X494920Y229680D01*
X505080D01*
X500000Y219520D01*
Y244920D02*
X494920Y255080D01*
X505080D01*
X500000Y244920D01*
Y270320D02*
X494920Y280480D01*
X505080D01*
X500000Y270320D01*
Y295720D02*
X494920Y305880D01*
X505080D01*
X500000Y295720D01*
Y321120D02*
X494920Y331280D01*
X505080D01*
X500000Y321120D01*
Y117920D02*
X494920Y128080D01*
X505080D01*
X500000Y117920D01*
X1322460Y797460D02*
Y794920D01*
X1327540D01*
Y797460D01*
X1330080D01*
Y802540D01*
X1327540D01*
Y805080D01*
X1322460D01*
Y802540D01*
X1319920D01*
Y797460D01*
X1322460D01*
X47460Y797460D02*
Y794920D01*
X52540D01*
Y797460D01*
X55080D01*
Y802540D01*
X52540D01*
Y805080D01*
X47460D01*
Y802540D01*
X44920D01*
Y797460D01*
X47460D01*
X784920Y491120D02*
Y501280D01*
X795080D01*
Y491120D01*
X784920D01*
Y516520D02*
Y526680D01*
X795080D01*
Y516520D01*
X784920D01*
Y567320D02*
Y577480D01*
X795080D01*
Y567320D01*
X784920D01*
Y465720D02*
Y475880D01*
X795080D01*
Y465720D01*
X784920D01*
Y541920D02*
Y552080D01*
X795080D01*
Y541920D01*
X784920D01*
Y440320D02*
Y450480D01*
X795080D01*
Y440320D01*
X784920D01*
X632774Y186211D02*
Y196371D01*
X642934D01*
Y186211D01*
X632774D01*
Y84611D02*
Y94771D01*
X642934D01*
Y84611D01*
X632774D01*
Y160811D02*
Y170971D01*
X642934D01*
Y160811D01*
X632774D01*
Y135411D02*
Y145571D01*
X642934D01*
Y135411D01*
X632774D01*
Y110011D02*
Y120171D01*
X642934D01*
Y110011D01*
X632774D01*
Y211611D02*
Y221771D01*
X642934D01*
Y211611D01*
X632774D01*
Y237011D02*
Y247171D01*
X642934D01*
Y237011D01*
X632774D01*
Y287811D02*
Y297971D01*
X642934D01*
Y287811D01*
X632774D01*
Y313211D02*
Y323371D01*
X642934D01*
Y313211D01*
X632774D01*
Y338611D02*
Y348771D01*
X642934D01*
Y338611D01*
X632774D01*
Y262411D02*
Y272571D01*
X642934D01*
Y262411D01*
X632774D01*
Y364011D02*
Y374171D01*
X642934D01*
Y364011D01*
X632774D01*
Y414811D02*
Y424971D01*
X642934D01*
Y414811D01*
X632774D01*
Y567211D02*
Y577371D01*
X642934D01*
Y567211D01*
X632774D01*
Y541811D02*
Y551971D01*
X642934D01*
Y541811D01*
X632774D01*
Y516411D02*
Y526571D01*
X642934D01*
Y516411D01*
X632774D01*
Y491011D02*
Y501171D01*
X642934D01*
Y491011D01*
X632774D01*
Y389411D02*
Y399571D01*
X642934D01*
Y389411D01*
X632774D01*
Y465611D02*
Y475771D01*
X642934D01*
Y465611D01*
X632774D01*
Y440211D02*
Y450371D01*
X642934D01*
Y440211D01*
X632774D01*
X784920Y186320D02*
Y196480D01*
X795080D01*
Y186320D01*
X784920D01*
Y84466D02*
Y94626D01*
X795080D01*
Y84466D01*
X784920D01*
Y160920D02*
Y171080D01*
X795080D01*
Y160920D01*
X784920D01*
Y135520D02*
Y145680D01*
X795080D01*
Y135520D01*
X784920D01*
Y110120D02*
Y120280D01*
X795080D01*
Y110120D01*
X784920D01*
Y211720D02*
Y221880D01*
X795080D01*
Y211720D01*
X784920D01*
Y338720D02*
Y348880D01*
X795080D01*
Y338720D01*
X784920D01*
Y414920D02*
Y425080D01*
X795080D01*
Y414920D01*
X784920D01*
Y389520D02*
Y399680D01*
X795080D01*
Y389520D01*
X784920D01*
Y364120D02*
Y374280D01*
X795080D01*
Y364120D01*
X784920D01*
Y313320D02*
Y323480D01*
X795080D01*
Y313320D01*
X784920D01*
Y287920D02*
Y298080D01*
X795080D01*
Y287920D01*
X784920D01*
Y262520D02*
Y272680D01*
X795080D01*
Y262520D01*
X784920D01*
Y237120D02*
Y247280D01*
X795080D01*
Y237120D01*
X784920D01*
X47460Y47460D02*
Y44920D01*
X52540D01*
Y47460D01*
X55080D01*
Y52540D01*
X52540D01*
Y55080D01*
X47460D01*
Y52540D01*
X44920D01*
Y47460D01*
X47460D01*
X200000Y545720D02*
X194920Y555880D01*
X205080D01*
X200000Y545720D01*
Y494920D02*
X194920Y505080D01*
X205080D01*
X200000Y494920D01*
Y520320D02*
X194920Y530480D01*
X205080D01*
X200000Y520320D01*
X1322460Y47460D02*
Y44920D01*
X1327540D01*
Y47460D01*
X1330080D01*
Y52540D01*
X1327540D01*
Y55080D01*
X1322460D01*
Y52540D01*
X1319920D01*
Y47460D01*
X1322460D01*
X1137000Y384920D02*
X1131920Y395080D01*
X1142080D01*
X1137000Y384920D01*
X1111600D02*
X1106520Y395080D01*
X1116680D01*
X1111600Y384920D01*
X1086200D02*
X1081120Y395080D01*
X1091280D01*
X1086200Y384920D01*
X1060800D02*
X1055720Y395080D01*
X1065880D01*
X1060800Y384920D01*
X1035400D02*
X1030320Y395080D01*
X1040480D01*
X1035400Y384920D01*
X1010000D02*
X1004920Y395080D01*
X1015080D01*
X1010000Y384920D01*
X984600D02*
X979520Y395080D01*
X989680D01*
X984600Y384920D01*
X1163200Y104920D02*
X1158120Y115080D01*
X1168280D01*
X1163200Y104920D01*
X1137800D02*
X1132720Y115080D01*
X1142880D01*
X1137800Y104920D01*
X1112400D02*
X1107320Y115080D01*
X1117480D01*
X1112400Y104920D01*
X1087000D02*
X1081920Y115080D01*
X1092080D01*
X1087000Y104920D01*
X1061600D02*
X1056520Y115080D01*
X1066680D01*
X1061600Y104920D01*
X1036200D02*
X1031120Y115080D01*
X1041280D01*
X1036200Y104920D01*
X1010800D02*
X1005720Y115080D01*
X1015880D01*
X1010800Y104920D01*
X985400D02*
X980320Y115080D01*
X990480D01*
X985400Y104920D01*
X1162400Y384920D02*
X1157320Y395080D01*
X1167480D01*
X1162400Y384920D01*
X946020Y658420D02*
X948560Y663500D01*
X946020Y668580D01*
X951100Y666040D01*
X956180Y668580D01*
X953640Y663500D01*
X956180Y658420D01*
X951100Y660960D01*
X946020Y658420D01*
X1123820Y633020D02*
X1126360Y638100D01*
X1123820Y643180D01*
X1128900Y640640D01*
X1133980Y643180D01*
X1131440Y638100D01*
X1133980Y633020D01*
X1128900Y635560D01*
X1123820Y633020D01*
Y607620D02*
X1126360Y612700D01*
X1123820Y617780D01*
X1128900Y615240D01*
X1133980Y617780D01*
X1131440Y612700D01*
X1133980Y607620D01*
X1128900Y610160D01*
X1123820Y607620D01*
Y582220D02*
X1126360Y587300D01*
X1123820Y592380D01*
X1128900Y589840D01*
X1133980Y592380D01*
X1131440Y587300D01*
X1133980Y582220D01*
X1128900Y584760D01*
X1123820Y582220D01*
Y556820D02*
X1126360Y561900D01*
X1123820Y566980D01*
X1128900Y564440D01*
X1133980Y566980D01*
X1131440Y561900D01*
X1133980Y556820D01*
X1128900Y559360D01*
X1123820Y556820D01*
X946020Y531420D02*
X948560Y536500D01*
X946020Y541580D01*
X951100Y539040D01*
X956180Y541580D01*
X953640Y536500D01*
X956180Y531420D01*
X951100Y533960D01*
X946020Y531420D01*
Y556820D02*
X948560Y561900D01*
X946020Y566980D01*
X951100Y564440D01*
X956180Y566980D01*
X953640Y561900D01*
X956180Y556820D01*
X951100Y559360D01*
X946020Y556820D01*
Y582220D02*
X948560Y587300D01*
X946020Y592380D01*
X951100Y589840D01*
X956180Y592380D01*
X953640Y587300D01*
X956180Y582220D01*
X951100Y584760D01*
X946020Y582220D01*
Y607620D02*
X948560Y612700D01*
X946020Y617780D01*
X951100Y615240D01*
X956180Y617780D01*
X953640Y612700D01*
X956180Y607620D01*
X951100Y610160D01*
X946020Y607620D01*
Y633020D02*
X948560Y638100D01*
X946020Y643180D01*
X951100Y640640D01*
X956180Y643180D01*
X953640Y638100D01*
X956180Y633020D01*
X951100Y635560D01*
X946020Y633020D01*
X885000Y634920D02*
X887540Y637460D01*
X890080D01*
X887540Y640000D01*
X890080Y642540D01*
X887540D01*
X885000Y645080D01*
X882460Y642540D01*
X879920D01*
X882460Y640000D01*
X879920Y637460D01*
X882460D01*
X885000Y634920D01*
Y654920D02*
X887540Y657460D01*
X890080D01*
X887540Y660000D01*
X890080Y662540D01*
X887540D01*
X885000Y665080D01*
X882460Y662540D01*
X879920D01*
X882460Y660000D01*
X879920Y657460D01*
X882460D01*
X885000Y654920D01*
Y189920D02*
X887540Y192460D01*
X890080D01*
X887540Y195000D01*
X890080Y197540D01*
X887540D01*
X885000Y200080D01*
X882460Y197540D01*
X879920D01*
X882460Y195000D01*
X879920Y192460D01*
X882460D01*
X885000Y189920D01*
Y169920D02*
X887540Y172460D01*
X890080D01*
X887540Y175000D01*
X890080Y177540D01*
X887540D01*
X885000Y180080D01*
X882460Y177540D01*
X879920D01*
X882460Y175000D01*
X879920Y172460D01*
X882460D01*
X885000Y169920D01*
X800000Y719920D02*
X794920Y730080D01*
X805080D01*
X800000Y719920D01*
Y745320D02*
X794920Y755480D01*
X805080D01*
X800000Y745320D01*
Y770720D02*
X794920Y780880D01*
X805080D01*
X800000Y770720D01*
X283520Y404920D02*
Y415080D01*
X293680D01*
Y404920D01*
X283520D01*
X306320D02*
Y415080D01*
X316480D01*
Y404920D01*
X306320D01*
X530000D02*
X532540Y407460D01*
X535080D01*
X532540Y410000D01*
X535080Y412540D01*
X532540D01*
X530000Y415080D01*
X527460Y412540D01*
X524920D01*
X527460Y410000D01*
X524920Y407460D01*
X527460D01*
X530000Y404920D01*
X510000D02*
X512540Y407460D01*
X515080D01*
X512540Y410000D01*
X515080Y412540D01*
X512540D01*
X510000Y415080D01*
X507460Y412540D01*
X504920D01*
X507460Y410000D01*
X504920Y407460D01*
X507460D01*
X510000Y404920D01*
X500000Y544920D02*
X502540Y547460D01*
X505080D01*
X502540Y550000D01*
X505080Y552540D01*
X502540D01*
X500000Y555080D01*
X497460Y552540D01*
X494920D01*
X497460Y550000D01*
X494920Y547460D01*
X497460D01*
X500000Y544920D01*
X480000D02*
X482540Y547460D01*
X485080D01*
X482540Y550000D01*
X485080Y552540D01*
X482540D01*
X480000Y555080D01*
X477460Y552540D01*
X474920D01*
X477460Y550000D01*
X474920Y547460D01*
X477460D01*
X480000Y544920D01*
D50*
X450080Y410000D02*
G03*
X450080Y410000I-5080J0D01*
G01*
X360080D02*
G03*
X360080Y410000I-5080J0D01*
G01*
X335080Y525000D02*
G03*
X335080Y525000I-5080J0D01*
G01*
Y615000D02*
G03*
X335080Y615000I-5080J0D01*
G01*
X415080D02*
G03*
X415080Y615000I-5080J0D01*
G01*
Y525000D02*
G03*
X415080Y525000I-5080J0D01*
G01*
M02*
