G04*
G04 #@! TF.GenerationSoftware,Altium Limited,Altium Designer,24.1.2 (44)*
G04*
G04 Layer_Color=128*
%FSLAX44Y44*%
%MOMM*%
G71*
G04*
G04 #@! TF.SameCoordinates,0D7877E6-725A-4D16-A8B8-B6347F423BC3*
G04*
G04*
G04 #@! TF.FilePolarity,Positive*
G04*
G01*
G75*
%ADD49C,0.1270*%
D49*
X494000Y148400D02*
X506000D01*
X500000Y142400D02*
Y154400D01*
X494000Y173800D02*
X506000D01*
X500000Y167800D02*
Y179800D01*
X494000Y199200D02*
X506000D01*
X500000Y193200D02*
Y205200D01*
X494000Y224600D02*
X506000D01*
X500000Y218600D02*
Y230600D01*
X494000Y250000D02*
X506000D01*
X500000Y244000D02*
Y256000D01*
X494000Y275400D02*
X506000D01*
X500000Y269400D02*
Y281400D01*
X494000Y300800D02*
X506000D01*
X500000Y294800D02*
Y306800D01*
X494000Y326200D02*
X506000D01*
X500000Y320200D02*
Y332200D01*
X494000Y123000D02*
X506000D01*
X500000Y117000D02*
Y129000D01*
X1310000Y800000D02*
X1340000D01*
X1325000Y785000D02*
Y815000D01*
X35000Y800000D02*
X65000D01*
X50000Y785000D02*
Y815000D01*
X785000Y496200D02*
X795000D01*
X790000Y491200D02*
Y501200D01*
X785000Y521600D02*
X795000D01*
X790000Y516600D02*
Y526600D01*
X785000Y572400D02*
X795000D01*
X790000Y567400D02*
Y577400D01*
X785000Y470800D02*
X795000D01*
X790000Y465800D02*
Y475800D01*
X785000Y547000D02*
X795000D01*
X790000Y542000D02*
Y552000D01*
X785000Y445400D02*
X795000D01*
X790000Y440400D02*
Y450400D01*
X632854Y191291D02*
X642854D01*
X637854Y186291D02*
Y196291D01*
X632854Y89691D02*
X642854D01*
X637854Y84691D02*
Y94691D01*
X632854Y165891D02*
X642854D01*
X637854Y160891D02*
Y170891D01*
X632854Y140491D02*
X642854D01*
X637854Y135491D02*
Y145491D01*
X632854Y115091D02*
X642854D01*
X637854Y110091D02*
Y120091D01*
X632854Y216691D02*
X642854D01*
X637854Y211691D02*
Y221691D01*
X632854Y242091D02*
X642854D01*
X637854Y237091D02*
Y247091D01*
X632854Y292891D02*
X642854D01*
X637854Y287891D02*
Y297891D01*
X632854Y318291D02*
X642854D01*
X637854Y313291D02*
Y323291D01*
X632854Y343691D02*
X642854D01*
X637854Y338691D02*
Y348691D01*
X632854Y267491D02*
X642854D01*
X637854Y262491D02*
Y272491D01*
X632854Y369091D02*
X642854D01*
X637854Y364091D02*
Y374091D01*
X632854Y419891D02*
X642854D01*
X637854Y414891D02*
Y424891D01*
X632854Y572291D02*
X642854D01*
X637854Y567291D02*
Y577291D01*
X632854Y546891D02*
X642854D01*
X637854Y541891D02*
Y551891D01*
X632854Y521491D02*
X642854D01*
X637854Y516491D02*
Y526491D01*
X632854Y496091D02*
X642854D01*
X637854Y491091D02*
Y501091D01*
X632854Y394491D02*
X642854D01*
X637854Y389491D02*
Y399491D01*
X632854Y470691D02*
X642854D01*
X637854Y465691D02*
Y475691D01*
X632854Y445291D02*
X642854D01*
X637854Y440291D02*
Y450291D01*
X785000Y191400D02*
X795000D01*
X790000Y186400D02*
Y196400D01*
X785000Y89546D02*
X795000D01*
X790000Y84546D02*
Y94546D01*
X785000Y166000D02*
X795000D01*
X790000Y161000D02*
Y171000D01*
X785000Y140600D02*
X795000D01*
X790000Y135600D02*
Y145600D01*
X785000Y115200D02*
X795000D01*
X790000Y110200D02*
Y120200D01*
X785000Y216800D02*
X795000D01*
X790000Y211800D02*
Y221800D01*
X785000Y343800D02*
X795000D01*
X790000Y338800D02*
Y348800D01*
X785000Y420000D02*
X795000D01*
X790000Y415000D02*
Y425000D01*
X785000Y394600D02*
X795000D01*
X790000Y389600D02*
Y399600D01*
X785000Y369200D02*
X795000D01*
X790000Y364200D02*
Y374200D01*
X785000Y318400D02*
X795000D01*
X790000Y313400D02*
Y323400D01*
X785000Y293000D02*
X795000D01*
X790000Y288000D02*
Y298000D01*
X785000Y267600D02*
X795000D01*
X790000Y262600D02*
Y272600D01*
X785000Y242200D02*
X795000D01*
X790000Y237200D02*
Y247200D01*
X35000Y50000D02*
X65000D01*
X50000Y35000D02*
Y65000D01*
X194000Y550800D02*
X206000D01*
X200000Y544800D02*
Y556800D01*
X194000Y500000D02*
X206000D01*
X200000Y494000D02*
Y506000D01*
X194000Y525400D02*
X206000D01*
X200000Y519400D02*
Y531400D01*
X1310000Y50000D02*
X1340000D01*
X1325000Y35000D02*
Y65000D01*
X1131000Y390000D02*
X1143000D01*
X1137000Y384000D02*
Y396000D01*
X1105600Y390000D02*
X1117600D01*
X1111600Y384000D02*
Y396000D01*
X1080200Y390000D02*
X1092200D01*
X1086200Y384000D02*
Y396000D01*
X1054800Y390000D02*
X1066800D01*
X1060800Y384000D02*
Y396000D01*
X1029400Y390000D02*
X1041400D01*
X1035400Y384000D02*
Y396000D01*
X1004000Y390000D02*
X1016000D01*
X1010000Y384000D02*
Y396000D01*
X978600Y390000D02*
X990600D01*
X984600Y384000D02*
Y396000D01*
X1157200Y110000D02*
X1169200D01*
X1163200Y104000D02*
Y116000D01*
X1131800Y110000D02*
X1143800D01*
X1137800Y104000D02*
Y116000D01*
X1106400Y110000D02*
X1118400D01*
X1112400Y104000D02*
Y116000D01*
X1081000Y110000D02*
X1093000D01*
X1087000Y104000D02*
Y116000D01*
X1055600Y110000D02*
X1067600D01*
X1061600Y104000D02*
Y116000D01*
X1030200Y110000D02*
X1042200D01*
X1036200Y104000D02*
Y116000D01*
X1004800Y110000D02*
X1016800D01*
X1010800Y104000D02*
Y116000D01*
X979400Y110000D02*
X991400D01*
X985400Y104000D02*
Y116000D01*
X1156400Y390000D02*
X1168400D01*
X1162400Y384000D02*
Y396000D01*
X947290Y663500D02*
X954910D01*
X951100Y659690D02*
Y667310D01*
X1125090Y638100D02*
X1132710D01*
X1128900Y634290D02*
Y641910D01*
X1125090Y612700D02*
X1132710D01*
X1128900Y608890D02*
Y616510D01*
X1125090Y587300D02*
X1132710D01*
X1128900Y583490D02*
Y591110D01*
X1125090Y561900D02*
X1132710D01*
X1128900Y558090D02*
Y565710D01*
X947290Y536500D02*
X954910D01*
X951100Y532690D02*
Y540310D01*
X947290Y561900D02*
X954910D01*
X951100Y558090D02*
Y565710D01*
X947290Y587300D02*
X954910D01*
X951100Y583490D02*
Y591110D01*
X947290Y612700D02*
X954910D01*
X951100Y608890D02*
Y616510D01*
X947290Y638100D02*
X954910D01*
X951100Y634290D02*
Y641910D01*
X881000Y640000D02*
X889000D01*
X885000Y636000D02*
Y644000D01*
X881000Y660000D02*
X889000D01*
X885000Y656000D02*
Y664000D01*
X881000Y195000D02*
X889000D01*
X885000Y191000D02*
Y199000D01*
X881000Y175000D02*
X889000D01*
X885000Y171000D02*
Y179000D01*
X794000Y725000D02*
X806000D01*
X800000Y719000D02*
Y731000D01*
X794000Y750400D02*
X806000D01*
X800000Y744400D02*
Y756400D01*
X794000Y775800D02*
X806000D01*
X800000Y769800D02*
Y781800D01*
X283600Y410000D02*
X293600D01*
X288600Y405000D02*
Y415000D01*
X306400Y410000D02*
X316400D01*
X311400Y405000D02*
Y415000D01*
X526000Y410000D02*
X534000D01*
X530000Y406000D02*
Y414000D01*
X506000Y410000D02*
X514000D01*
X510000Y406000D02*
Y414000D01*
X440750Y410000D02*
X449250D01*
X445000Y405750D02*
Y414250D01*
X350750Y410000D02*
X359250D01*
X355000Y405750D02*
Y414250D01*
X325751Y525000D02*
X334250D01*
X330000Y520750D02*
Y529250D01*
X325751Y615000D02*
X334250D01*
X330000Y610750D02*
Y619250D01*
X405750Y615000D02*
X414250D01*
X410000Y610750D02*
Y619250D01*
X405750Y525000D02*
X414250D01*
X410000Y520750D02*
Y529250D01*
X496000Y550000D02*
X504000D01*
X500000Y546000D02*
Y554000D01*
X476000Y550000D02*
X484000D01*
X480000Y546000D02*
Y554000D01*
M02*
