G04*
G04 #@! TF.GenerationSoftware,Altium Limited,Altium Designer,24.1.2 (44)*
G04*
G04 Layer_Physical_Order=1*
G04 Layer_Color=255*
%FSLAX44Y44*%
%MOMM*%
G71*
G04*
G04 #@! TF.SameCoordinates,0D7877E6-725A-4D16-A8B8-B6347F423BC3*
G04*
G04*
G04 #@! TF.FilePolarity,Positive*
G04*
G01*
G75*
%ADD29C,1.5000*%
%ADD30C,2.0000*%
%ADD31C,0.5000*%
%ADD32C,1.2000*%
%ADD33O,2.0000X1.6000*%
%ADD34R,2.0000X1.6000*%
%ADD35C,5.0000*%
%ADD36O,2.0000X2.0000*%
%ADD37R,7.5000X12.0000*%
%ADD38R,1.6000X2.0000*%
%ADD39O,1.6000X2.0000*%
%ADD40C,1.5240*%
%ADD41C,1.3000*%
%ADD42R,1.3000X1.3000*%
%ADD43R,1.5000X1.5000*%
%ADD44C,1.5000*%
%ADD45R,1.3000X1.3000*%
%ADD46C,1.3500*%
%ADD47R,1.3500X1.3500*%
%ADD48R,1.3500X1.3500*%
G36*
X1360000Y10000D02*
X10000D01*
Y370000D01*
X38730D01*
Y430000D01*
Y490000D01*
X10000D01*
Y550000D01*
X97500D01*
Y599907D01*
X152535D01*
X169907Y582536D01*
Y550800D01*
X170278Y546092D01*
X171380Y541501D01*
X172000Y540004D01*
Y520800D01*
X192418D01*
X193012Y519365D01*
X194294Y517694D01*
X195965Y516412D01*
X197911Y515606D01*
X200000Y515331D01*
X202088Y515606D01*
X204034Y516412D01*
X205706Y517694D01*
X206988Y519365D01*
X207582Y520800D01*
X228000D01*
Y522784D01*
X229173Y523270D01*
X248721Y503722D01*
X252312Y500655D01*
X256338Y498187D01*
X260701Y496380D01*
X265292Y495278D01*
X270000Y494908D01*
X330000D01*
X334708Y495278D01*
X339300Y496380D01*
X343662Y498187D01*
X343765Y498250D01*
X356750D01*
Y511236D01*
X356813Y511339D01*
X358620Y515701D01*
X359723Y520293D01*
X360093Y525000D01*
X359723Y529708D01*
X358620Y534300D01*
X356813Y538662D01*
X356750Y538765D01*
Y551750D01*
X343765D01*
X343662Y551813D01*
X339300Y553620D01*
X334708Y554723D01*
X330000Y555093D01*
X282465D01*
X221279Y616279D01*
X221279Y616279D01*
X186279Y651279D01*
X182688Y654346D01*
X178662Y656813D01*
X174299Y658620D01*
X169708Y659722D01*
X165000Y660093D01*
X97500D01*
Y710000D01*
X10000D01*
Y840000D01*
X1360000D01*
Y10000D01*
D02*
G37*
%LPC*%
G36*
X52462Y825000D02*
X51270D01*
Y801270D01*
X75000D01*
Y802462D01*
X74039Y807292D01*
X72155Y811842D01*
X69419Y815937D01*
X65937Y819419D01*
X61842Y822155D01*
X57292Y824039D01*
X52462Y825000D01*
D02*
G37*
G36*
X48730D02*
X47538D01*
X42708Y824039D01*
X38158Y822155D01*
X34063Y819419D01*
X30581Y815937D01*
X27845Y811842D01*
X25961Y807292D01*
X25000Y802462D01*
Y801270D01*
X48730D01*
Y825000D01*
D02*
G37*
G36*
X1327462Y825000D02*
X1326270D01*
Y801270D01*
X1350000D01*
Y802462D01*
X1349039Y807292D01*
X1347155Y811842D01*
X1344419Y815937D01*
X1340937Y819419D01*
X1336842Y822155D01*
X1332292Y824039D01*
X1327462Y825000D01*
D02*
G37*
G36*
X1323730D02*
X1322538D01*
X1317708Y824039D01*
X1313158Y822155D01*
X1309064Y819419D01*
X1305581Y815937D01*
X1302845Y811842D01*
X1300961Y807292D01*
X1300000Y802462D01*
Y801270D01*
X1323730D01*
Y825000D01*
D02*
G37*
G36*
X75000Y798730D02*
X51270D01*
Y775000D01*
X52462D01*
X57292Y775961D01*
X61842Y777845D01*
X65937Y780581D01*
X69419Y784063D01*
X72155Y788158D01*
X74039Y792708D01*
X75000Y797538D01*
Y798730D01*
D02*
G37*
G36*
X48730D02*
X25000D01*
Y797538D01*
X25961Y792708D01*
X27845Y788158D01*
X30581Y784063D01*
X34063Y780581D01*
X38158Y777845D01*
X42708Y775961D01*
X47538Y775000D01*
X48730D01*
Y798730D01*
D02*
G37*
G36*
X1350000Y798730D02*
X1326270D01*
Y775000D01*
X1327462D01*
X1332292Y775961D01*
X1336842Y777845D01*
X1340937Y780581D01*
X1344419Y784063D01*
X1347155Y788158D01*
X1349039Y792708D01*
X1350000Y797538D01*
Y798730D01*
D02*
G37*
G36*
X1323730D02*
X1300000D01*
Y797538D01*
X1300961Y792708D01*
X1302845Y788158D01*
X1305581Y784063D01*
X1309064Y780581D01*
X1313158Y777845D01*
X1317708Y775961D01*
X1322538Y775000D01*
X1323730D01*
Y798730D01*
D02*
G37*
G36*
X801270Y734902D02*
Y726270D01*
X808069D01*
Y727000D01*
X807794Y729088D01*
X806988Y731034D01*
X805706Y732706D01*
X804035Y733988D01*
X802088Y734794D01*
X801270Y734902D01*
D02*
G37*
G36*
X798730D02*
X797912Y734794D01*
X795965Y733988D01*
X794294Y732706D01*
X793012Y731034D01*
X792206Y729088D01*
X791931Y727000D01*
Y726270D01*
X798730D01*
Y734902D01*
D02*
G37*
G36*
Y723730D02*
X791931D01*
Y723000D01*
X792206Y720912D01*
X793012Y718966D01*
X794294Y717294D01*
X795965Y716012D01*
X797912Y715206D01*
X798730Y715098D01*
Y723730D01*
D02*
G37*
G36*
X808069D02*
X801270D01*
Y715098D01*
X802088Y715206D01*
X804035Y716012D01*
X805706Y717294D01*
X806988Y718966D01*
X807794Y720912D01*
X808069Y723000D01*
Y723730D01*
D02*
G37*
G36*
X886270Y646389D02*
Y641270D01*
X891389D01*
X891057Y642509D01*
X890201Y643991D01*
X888991Y645201D01*
X887509Y646057D01*
X886270Y646389D01*
D02*
G37*
G36*
X883730D02*
X882491Y646057D01*
X881009Y645201D01*
X879799Y643991D01*
X878943Y642509D01*
X878611Y641270D01*
X883730D01*
Y646389D01*
D02*
G37*
G36*
X891389Y638730D02*
X886270D01*
Y633611D01*
X887509Y633943D01*
X888991Y634799D01*
X890201Y636009D01*
X891057Y637491D01*
X891389Y638730D01*
D02*
G37*
G36*
X883730D02*
X878611D01*
X878943Y637491D01*
X879799Y636009D01*
X881009Y634799D01*
X882491Y633943D01*
X883730Y633611D01*
Y638730D01*
D02*
G37*
G36*
X1130238Y648260D02*
X1127563D01*
X1124979Y647568D01*
X1122662Y646230D01*
X1120770Y644339D01*
X1119433Y642022D01*
X1118740Y639438D01*
Y636763D01*
X1119433Y634179D01*
X1120770Y631862D01*
X1122662Y629970D01*
X1124979Y628633D01*
X1127563Y627940D01*
X1130238D01*
X1132822Y628633D01*
X1135139Y629970D01*
X1137030Y631862D01*
X1138368Y634179D01*
X1139060Y636763D01*
Y639438D01*
X1138368Y642022D01*
X1137030Y644339D01*
X1135139Y646230D01*
X1132822Y647568D01*
X1130238Y648260D01*
D02*
G37*
G36*
X952370Y620249D02*
Y613970D01*
X958649D01*
X958201Y615641D01*
X957198Y617379D01*
X955779Y618798D01*
X954041Y619801D01*
X952370Y620249D01*
D02*
G37*
G36*
X949830D02*
X948159Y619801D01*
X946421Y618798D01*
X945003Y617379D01*
X943999Y615641D01*
X943552Y613970D01*
X949830D01*
Y620249D01*
D02*
G37*
G36*
X958649Y611430D02*
X952370D01*
Y605152D01*
X954041Y605599D01*
X955779Y606603D01*
X957198Y608021D01*
X958201Y609759D01*
X958649Y611430D01*
D02*
G37*
G36*
X949830D02*
X943552D01*
X943999Y609759D01*
X945003Y608021D01*
X946421Y606603D01*
X948159Y605599D01*
X949830Y605152D01*
Y611430D01*
D02*
G37*
G36*
X1130238Y622860D02*
X1127563D01*
X1124979Y622168D01*
X1122662Y620830D01*
X1120770Y618939D01*
X1119433Y616622D01*
X1118740Y614038D01*
Y611363D01*
X1119433Y608779D01*
X1120770Y606462D01*
X1122662Y604570D01*
X1124979Y603233D01*
X1127563Y602540D01*
X1130238D01*
X1132822Y603233D01*
X1135139Y604570D01*
X1137030Y606462D01*
X1138368Y608779D01*
X1139060Y611363D01*
Y614038D01*
X1138368Y616622D01*
X1137030Y618939D01*
X1135139Y620830D01*
X1132822Y622168D01*
X1130238Y622860D01*
D02*
G37*
G36*
Y597460D02*
X1127563D01*
X1124979Y596768D01*
X1122662Y595430D01*
X1120770Y593539D01*
X1119433Y591222D01*
X1118740Y588638D01*
Y585963D01*
X1119433Y583379D01*
X1120770Y581062D01*
X1122662Y579170D01*
X1124979Y577833D01*
X1127563Y577140D01*
X1130238D01*
X1132822Y577833D01*
X1135139Y579170D01*
X1137030Y581062D01*
X1138368Y583379D01*
X1139060Y585963D01*
Y588638D01*
X1138368Y591222D01*
X1137030Y593539D01*
X1135139Y595430D01*
X1132822Y596768D01*
X1130238Y597460D01*
D02*
G37*
G36*
X790000Y585048D02*
X786727Y584617D01*
X783676Y583354D01*
X781057Y581344D01*
X779046Y578724D01*
X777783Y575674D01*
X777352Y572400D01*
X777783Y569126D01*
X779046Y566076D01*
X781057Y563456D01*
X783676Y561446D01*
X786727Y560183D01*
X790000Y559752D01*
X793274Y560183D01*
X796324Y561446D01*
X798944Y563456D01*
X800954Y566076D01*
X802217Y569126D01*
X802648Y572400D01*
X802217Y575674D01*
X800954Y578724D01*
X798944Y581344D01*
X796324Y583354D01*
X793274Y584617D01*
X790000Y585048D01*
D02*
G37*
G36*
X1130238Y572060D02*
X1127563D01*
X1124979Y571368D01*
X1122662Y570030D01*
X1120770Y568139D01*
X1119433Y565822D01*
X1118740Y563238D01*
Y560563D01*
X1119433Y557979D01*
X1120770Y555662D01*
X1122662Y553770D01*
X1124979Y552433D01*
X1127563Y551740D01*
X1130238D01*
X1132822Y552433D01*
X1135139Y553770D01*
X1137030Y555662D01*
X1138368Y557979D01*
X1139060Y560563D01*
Y563238D01*
X1138368Y565822D01*
X1137030Y568139D01*
X1135139Y570030D01*
X1132822Y571368D01*
X1130238Y572060D01*
D02*
G37*
G36*
X481270Y556389D02*
Y551270D01*
X486389D01*
X486057Y552509D01*
X485201Y553991D01*
X483991Y555201D01*
X482509Y556057D01*
X481270Y556389D01*
D02*
G37*
G36*
X478730D02*
X477491Y556057D01*
X476009Y555201D01*
X474799Y553991D01*
X473943Y552509D01*
X473611Y551270D01*
X478730D01*
Y556389D01*
D02*
G37*
G36*
X791270Y556919D02*
Y548270D01*
X799919D01*
X799743Y549610D01*
X798735Y552043D01*
X797132Y554132D01*
X795043Y555735D01*
X792611Y556743D01*
X791270Y556919D01*
D02*
G37*
G36*
X788730D02*
X787390Y556743D01*
X784957Y555735D01*
X782868Y554132D01*
X781265Y552043D01*
X780258Y549610D01*
X780081Y548270D01*
X788730D01*
Y556919D01*
D02*
G37*
G36*
X486389Y548730D02*
X481270D01*
Y543611D01*
X482509Y543943D01*
X483991Y544799D01*
X485201Y546009D01*
X486057Y547491D01*
X486389Y548730D01*
D02*
G37*
G36*
X478730D02*
X473611D01*
X473943Y547491D01*
X474799Y546009D01*
X476009Y544799D01*
X477491Y543943D01*
X478730Y543611D01*
Y548730D01*
D02*
G37*
G36*
X788730Y545730D02*
X780081D01*
X780258Y544389D01*
X781265Y541957D01*
X782868Y539868D01*
X784957Y538265D01*
X787390Y537257D01*
X788730Y537081D01*
Y545730D01*
D02*
G37*
G36*
X411270Y531648D02*
Y526270D01*
X416648D01*
X416290Y527606D01*
X415401Y529145D01*
X414144Y530402D01*
X412605Y531290D01*
X411270Y531648D01*
D02*
G37*
G36*
X408730D02*
X407394Y531290D01*
X405855Y530402D01*
X404599Y529145D01*
X403710Y527606D01*
X403352Y526270D01*
X408730D01*
Y531648D01*
D02*
G37*
G36*
Y523730D02*
X403352D01*
X403710Y522395D01*
X404599Y520856D01*
X405855Y519599D01*
X407394Y518710D01*
X408730Y518353D01*
Y523730D01*
D02*
G37*
G36*
X416648D02*
X411270D01*
Y518353D01*
X412605Y518710D01*
X414144Y519599D01*
X415401Y520856D01*
X416290Y522395D01*
X416648Y523730D01*
D02*
G37*
G36*
X77500Y490000D02*
X41270D01*
Y431270D01*
X77500D01*
Y490000D01*
D02*
G37*
G36*
X531270Y416389D02*
Y411270D01*
X536389D01*
X536057Y412509D01*
X535201Y413991D01*
X533991Y415201D01*
X532509Y416057D01*
X531270Y416389D01*
D02*
G37*
G36*
X446270Y416648D02*
Y411270D01*
X451647D01*
X451290Y412605D01*
X450401Y414145D01*
X449144Y415401D01*
X447605Y416290D01*
X446270Y416648D01*
D02*
G37*
G36*
X443730D02*
X442394Y416290D01*
X440855Y415401D01*
X439598Y414145D01*
X438710Y412605D01*
X438352Y411270D01*
X443730D01*
Y416648D01*
D02*
G37*
G36*
X528730Y416389D02*
X527491Y416057D01*
X526009Y415201D01*
X524799Y413991D01*
X523943Y412509D01*
X523611Y411270D01*
X528730D01*
Y416389D01*
D02*
G37*
G36*
X536389Y408730D02*
X531270D01*
Y403611D01*
X532509Y403943D01*
X533991Y404799D01*
X535201Y406009D01*
X536057Y407491D01*
X536389Y408730D01*
D02*
G37*
G36*
X528730D02*
X523611D01*
X523943Y407491D01*
X524799Y406009D01*
X526009Y404799D01*
X527491Y403943D01*
X528730Y403611D01*
Y408730D01*
D02*
G37*
G36*
X451647D02*
X446270D01*
Y403352D01*
X447605Y403710D01*
X449144Y404599D01*
X450401Y405855D01*
X451290Y407395D01*
X451647Y408730D01*
D02*
G37*
G36*
X443730D02*
X438352D01*
X438710Y407395D01*
X439598Y405855D01*
X440855Y404599D01*
X442394Y403710D01*
X443730Y403352D01*
Y408730D01*
D02*
G37*
G36*
X1163670Y399902D02*
Y391270D01*
X1170469D01*
Y392000D01*
X1170194Y394089D01*
X1169388Y396035D01*
X1168106Y397706D01*
X1166435Y398988D01*
X1164489Y399794D01*
X1163670Y399902D01*
D02*
G37*
G36*
X1161130D02*
X1160312Y399794D01*
X1158366Y398988D01*
X1156695Y397706D01*
X1155412Y396035D01*
X1154606Y394089D01*
X1154331Y392000D01*
Y391270D01*
X1161130D01*
Y399902D01*
D02*
G37*
G36*
X1170469Y388730D02*
X1163670D01*
Y380098D01*
X1164489Y380206D01*
X1166435Y381012D01*
X1168106Y382294D01*
X1169388Y383966D01*
X1170194Y385912D01*
X1170469Y388000D01*
Y388730D01*
D02*
G37*
G36*
X1161130D02*
X1154331D01*
Y388000D01*
X1154606Y385912D01*
X1155412Y383966D01*
X1156695Y382294D01*
X1158366Y381012D01*
X1160312Y380206D01*
X1161130Y380098D01*
Y388730D01*
D02*
G37*
G36*
X1137000Y402631D02*
X1134249Y402269D01*
X1131685Y401207D01*
X1129483Y399517D01*
X1127794Y397316D01*
X1126732Y394752D01*
X1126369Y392000D01*
Y388000D01*
X1126732Y385249D01*
X1127794Y382685D01*
X1129483Y380483D01*
X1131685Y378793D01*
X1134249Y377731D01*
X1137000Y377369D01*
X1139752Y377731D01*
X1142316Y378793D01*
X1144518Y380483D01*
X1146207Y382685D01*
X1147269Y385249D01*
X1147631Y388000D01*
Y392000D01*
X1147269Y394752D01*
X1146207Y397316D01*
X1144518Y399517D01*
X1142316Y401207D01*
X1139752Y402269D01*
X1137000Y402631D01*
D02*
G37*
G36*
X1111600D02*
X1108849Y402269D01*
X1106285Y401207D01*
X1104083Y399517D01*
X1102394Y397316D01*
X1101332Y394752D01*
X1100969Y392000D01*
Y388000D01*
X1101332Y385249D01*
X1102394Y382685D01*
X1104083Y380483D01*
X1106285Y378793D01*
X1108849Y377731D01*
X1111600Y377369D01*
X1114352Y377731D01*
X1116916Y378793D01*
X1119118Y380483D01*
X1120807Y382685D01*
X1121869Y385249D01*
X1122231Y388000D01*
Y392000D01*
X1121869Y394752D01*
X1120807Y397316D01*
X1119118Y399517D01*
X1116916Y401207D01*
X1114352Y402269D01*
X1111600Y402631D01*
D02*
G37*
G36*
X77500Y428730D02*
X41270D01*
Y370000D01*
X77500D01*
Y428730D01*
D02*
G37*
G36*
X800000Y788431D02*
X797249Y788069D01*
X794685Y787007D01*
X792483Y785317D01*
X790793Y783115D01*
X789731Y780552D01*
X789369Y777800D01*
Y773800D01*
X789731Y771049D01*
X790793Y768484D01*
X792483Y766283D01*
X794685Y764593D01*
X796630Y763787D01*
Y762413D01*
X794685Y761607D01*
X792483Y759917D01*
X791269Y758335D01*
X788209D01*
X785588Y757990D01*
X783145Y756979D01*
X781048Y755369D01*
X781048Y755369D01*
X672839Y647161D01*
X671230Y645063D01*
X670218Y642621D01*
X669873Y640000D01*
X669873Y640000D01*
Y570001D01*
X669873Y570000D01*
X669873Y570000D01*
Y406442D01*
X643681Y380251D01*
X641622Y381104D01*
Y382479D01*
X644178Y383538D01*
X646798Y385548D01*
X648808Y388167D01*
X650071Y391218D01*
X650502Y394491D01*
X650071Y397765D01*
X648808Y400815D01*
X646798Y403435D01*
X644178Y405445D01*
X641622Y406504D01*
Y407879D01*
X644178Y408938D01*
X646798Y410948D01*
X648808Y413567D01*
X650071Y416618D01*
X650502Y419891D01*
X650071Y423165D01*
X648808Y426215D01*
X646798Y428835D01*
X644178Y430845D01*
X641622Y431904D01*
Y433279D01*
X644178Y434338D01*
X646798Y436348D01*
X648808Y438967D01*
X650071Y442018D01*
X650502Y445291D01*
X650071Y448565D01*
X648808Y451615D01*
X646798Y454235D01*
X644178Y456245D01*
X641622Y457304D01*
Y458679D01*
X644178Y459738D01*
X646798Y461748D01*
X648808Y464367D01*
X650071Y467418D01*
X650502Y470691D01*
X650071Y473965D01*
X648808Y477015D01*
X646798Y479635D01*
X644178Y481645D01*
X641622Y482704D01*
Y484079D01*
X644178Y485138D01*
X646798Y487148D01*
X648808Y489767D01*
X650071Y492818D01*
X650502Y496091D01*
X650071Y499365D01*
X648808Y502415D01*
X646798Y505035D01*
X644178Y507045D01*
X641622Y508104D01*
Y509479D01*
X644178Y510538D01*
X646798Y512548D01*
X648808Y515167D01*
X650071Y518218D01*
X650502Y521491D01*
X650071Y524765D01*
X648808Y527815D01*
X646798Y530435D01*
X644178Y532445D01*
X641622Y533504D01*
Y534879D01*
X644178Y535938D01*
X646798Y537948D01*
X648808Y540567D01*
X650071Y543618D01*
X650502Y546891D01*
X650071Y550165D01*
X648808Y553215D01*
X646798Y555835D01*
X644178Y557845D01*
X641622Y558904D01*
Y560279D01*
X644178Y561338D01*
X646798Y563348D01*
X648808Y565967D01*
X650071Y569018D01*
X650502Y572291D01*
X650071Y575565D01*
X648808Y578615D01*
X646798Y581235D01*
X644178Y583245D01*
X641128Y584509D01*
X637854Y584939D01*
X634581Y584509D01*
X631530Y583245D01*
X628911Y581235D01*
X626900Y578615D01*
X625637Y575565D01*
X625206Y572291D01*
X625637Y569018D01*
X626900Y565967D01*
X628911Y563348D01*
X631530Y561338D01*
X634087Y560279D01*
Y558904D01*
X631530Y557845D01*
X628911Y555835D01*
X626900Y553215D01*
X625637Y550165D01*
X625206Y546891D01*
X625637Y543618D01*
X626900Y540567D01*
X628911Y537948D01*
X631530Y535938D01*
X634087Y534879D01*
Y533504D01*
X631530Y532445D01*
X628911Y530435D01*
X626900Y527815D01*
X625637Y524765D01*
X625206Y521491D01*
X625637Y518218D01*
X626900Y515167D01*
X628911Y512548D01*
X631530Y510538D01*
X634087Y509479D01*
Y508104D01*
X631530Y507045D01*
X628911Y505035D01*
X626900Y502415D01*
X625637Y499365D01*
X625206Y496091D01*
X625637Y492818D01*
X626900Y489767D01*
X628911Y487148D01*
X631530Y485138D01*
X634087Y484079D01*
Y482704D01*
X631530Y481645D01*
X628911Y479635D01*
X626900Y477015D01*
X625637Y473965D01*
X625206Y470691D01*
X625637Y467418D01*
X626900Y464367D01*
X628911Y461748D01*
X631530Y459738D01*
X634087Y458679D01*
Y457304D01*
X631530Y456245D01*
X630452Y455418D01*
X543903D01*
X510127Y489194D01*
Y550000D01*
Y570000D01*
X510127Y570000D01*
X509782Y572621D01*
X508770Y575063D01*
X507161Y577160D01*
X507161Y577161D01*
X462160Y622161D01*
X460063Y623770D01*
X457621Y624782D01*
X455000Y625127D01*
X455000Y625127D01*
X330000D01*
X327379Y624782D01*
X324937Y623770D01*
X322840Y622161D01*
X321231Y620064D01*
X320219Y617621D01*
X319874Y615000D01*
X320219Y612379D01*
X321231Y609937D01*
X322840Y607840D01*
X324937Y606230D01*
X327379Y605219D01*
X330000Y604874D01*
X450805D01*
X489874Y565805D01*
Y550000D01*
Y485000D01*
X489874Y485000D01*
X490219Y482379D01*
X491230Y479936D01*
X492840Y477839D01*
X532548Y438131D01*
X532548Y438131D01*
X534645Y436521D01*
X537088Y435510D01*
X539709Y435165D01*
X539709Y435165D01*
X630452D01*
X631530Y434338D01*
X634087Y433279D01*
Y431904D01*
X631530Y430845D01*
X630452Y430018D01*
X609891D01*
X607270Y429673D01*
X604828Y428661D01*
X602731Y427052D01*
X602731Y427052D01*
X527839Y352160D01*
X526230Y350063D01*
X525218Y347621D01*
X524873Y345000D01*
X524873Y345000D01*
Y274194D01*
X510872Y260193D01*
X504934D01*
X504751Y260269D01*
X502000Y260631D01*
X498000D01*
X495248Y260269D01*
X492684Y259207D01*
X490482Y257517D01*
X488793Y255315D01*
X487731Y252751D01*
X487369Y250000D01*
X487731Y247248D01*
X488793Y244684D01*
X490482Y242483D01*
X492684Y240793D01*
X495248Y239731D01*
X498000Y239369D01*
X502000D01*
X504751Y239731D01*
X505255Y239940D01*
X515066D01*
X515066Y239940D01*
X517687Y240285D01*
X520130Y241297D01*
X522227Y242906D01*
X542160Y262839D01*
X542161Y262839D01*
X543770Y264937D01*
X544781Y267379D01*
X545127Y270000D01*
X545127Y270000D01*
Y340805D01*
X614086Y409765D01*
X630452D01*
X631530Y408938D01*
X634087Y407879D01*
Y406504D01*
X631530Y405445D01*
X630452Y404618D01*
X620792D01*
X618171Y404273D01*
X615729Y403261D01*
X613631Y401652D01*
X613631Y401652D01*
X552840Y340860D01*
X551230Y338763D01*
X550219Y336320D01*
X549874Y333699D01*
X549874Y333699D01*
Y264195D01*
X520405Y234727D01*
X505094D01*
X504751Y234869D01*
X502000Y235231D01*
X498000D01*
X495248Y234869D01*
X492684Y233806D01*
X490482Y232117D01*
X488793Y229915D01*
X487731Y227351D01*
X487369Y224600D01*
X487731Y221848D01*
X488793Y219284D01*
X490482Y217083D01*
X492684Y215393D01*
X495248Y214331D01*
X498000Y213969D01*
X502000D01*
X504751Y214331D01*
X505094Y214473D01*
X524599D01*
X524599Y214473D01*
X527220Y214818D01*
X529663Y215830D01*
X531760Y217439D01*
X567161Y252840D01*
X567161Y252840D01*
X568770Y254937D01*
X569782Y257379D01*
X570127Y260000D01*
X570127Y260001D01*
Y329505D01*
X624987Y384365D01*
X630452D01*
X631530Y383538D01*
X634087Y382479D01*
Y381104D01*
X631530Y380045D01*
X628911Y378035D01*
X626900Y375415D01*
X625637Y372365D01*
X625206Y369091D01*
X625637Y365818D01*
X626900Y362767D01*
X628911Y360148D01*
X631530Y358138D01*
X634087Y357079D01*
Y355704D01*
X631530Y354645D01*
X628911Y352635D01*
X626900Y350015D01*
X625637Y346965D01*
X625206Y343691D01*
X625637Y340418D01*
X626900Y337367D01*
X628911Y334748D01*
X631530Y332738D01*
X634087Y331679D01*
Y330304D01*
X631530Y329245D01*
X628911Y327235D01*
X626900Y324615D01*
X625637Y321565D01*
X625206Y318291D01*
X625637Y315018D01*
X626900Y311967D01*
X628911Y309348D01*
X631530Y307338D01*
X634087Y306279D01*
Y304904D01*
X631530Y303845D01*
X628911Y301835D01*
X626900Y299215D01*
X625637Y296165D01*
X625206Y292891D01*
X625637Y289618D01*
X626900Y286567D01*
X628911Y283948D01*
X631530Y281938D01*
X634087Y280879D01*
Y279504D01*
X631530Y278445D01*
X628911Y276435D01*
X626900Y273815D01*
X625637Y270765D01*
X625206Y267491D01*
X625637Y264218D01*
X626900Y261167D01*
X628911Y258548D01*
X631530Y256538D01*
X634087Y255479D01*
Y254104D01*
X631530Y253045D01*
X628911Y251035D01*
X626900Y248415D01*
X625637Y245365D01*
X625206Y242091D01*
X625637Y238818D01*
X626900Y235767D01*
X628911Y233148D01*
X631530Y231138D01*
X634087Y230079D01*
Y228704D01*
X631530Y227645D01*
X628911Y225635D01*
X626900Y223015D01*
X625637Y219965D01*
X625206Y216691D01*
X625637Y213418D01*
X626900Y210367D01*
X628911Y207748D01*
X631530Y205738D01*
X634087Y204679D01*
Y203304D01*
X631530Y202245D01*
X628911Y200235D01*
X626900Y197615D01*
X625637Y194565D01*
X625206Y191291D01*
X625637Y188018D01*
X626900Y184967D01*
X628911Y182348D01*
X631530Y180338D01*
X634087Y179279D01*
Y177904D01*
X631530Y176845D01*
X628911Y174835D01*
X626900Y172215D01*
X625637Y169165D01*
X625206Y165891D01*
X625637Y162618D01*
X626900Y159567D01*
X628911Y156948D01*
X631530Y154938D01*
X634087Y153879D01*
Y152504D01*
X631530Y151445D01*
X628911Y149435D01*
X626900Y146815D01*
X625637Y143765D01*
X625206Y140491D01*
X625637Y137218D01*
X626900Y134167D01*
X628911Y131548D01*
X631530Y129538D01*
X634581Y128274D01*
X637854Y127843D01*
X641128Y128274D01*
X644178Y129538D01*
X645256Y130365D01*
X655314D01*
X732839Y52839D01*
X732839Y52839D01*
X734937Y51230D01*
X737379Y50218D01*
X740000Y49873D01*
X740000Y49873D01*
X1025000D01*
X1025000Y49873D01*
X1027621Y50218D01*
X1030064Y51230D01*
X1032161Y52839D01*
X1032161Y52839D01*
X1068569Y89248D01*
X1068569Y89248D01*
X1070178Y91345D01*
X1071190Y93788D01*
X1071535Y96409D01*
X1071535Y96409D01*
Y104443D01*
X1071869Y105249D01*
X1072231Y108000D01*
Y112000D01*
X1071869Y114752D01*
X1070807Y117316D01*
X1069117Y119517D01*
X1066915Y121207D01*
X1066764Y121270D01*
X1005873Y182161D01*
X1003775Y183770D01*
X1001333Y184782D01*
X998712Y185127D01*
X998712Y185127D01*
X885000D01*
X882379Y184782D01*
X880589Y184040D01*
X875960D01*
Y179412D01*
X875219Y177621D01*
X874874Y175000D01*
X875219Y172379D01*
X875960Y170589D01*
Y165960D01*
X880589D01*
X882379Y165219D01*
X885000Y164874D01*
X994517D01*
X1035563Y123828D01*
X1035108Y122487D01*
X1033448Y122269D01*
X1030884Y121207D01*
X1028683Y119517D01*
X1026993Y117316D01*
X1025931Y114752D01*
X1025569Y112000D01*
Y108000D01*
X1025931Y105249D01*
X1026993Y102685D01*
X1028683Y100483D01*
X1030884Y98793D01*
X1033448Y97731D01*
X1036200Y97369D01*
X1038951Y97731D01*
X1041515Y98793D01*
X1043717Y100483D01*
X1045406Y102685D01*
X1046469Y105249D01*
X1046831Y108000D01*
Y110764D01*
X1048101Y111290D01*
X1050969Y108422D01*
Y108000D01*
X1051282Y105624D01*
Y100603D01*
X1020806Y70127D01*
X744195D01*
X666669Y147652D01*
X664572Y149261D01*
X662130Y150273D01*
X659509Y150618D01*
X659509Y150618D01*
X645256D01*
X644178Y151445D01*
X641622Y152504D01*
Y153879D01*
X644178Y154938D01*
X646798Y156948D01*
X648808Y159567D01*
X650071Y162618D01*
X650502Y165891D01*
X650071Y169165D01*
X648808Y172215D01*
X646798Y174835D01*
X644178Y176845D01*
X641622Y177904D01*
Y179279D01*
X644178Y180338D01*
X646798Y182348D01*
X648808Y184967D01*
X650071Y188018D01*
X650502Y191291D01*
X650071Y194565D01*
X648808Y197615D01*
X646798Y200235D01*
X644178Y202245D01*
X641622Y203304D01*
Y204679D01*
X644178Y205738D01*
X646798Y207748D01*
X648808Y210367D01*
X650071Y213418D01*
X650502Y216691D01*
X650071Y219965D01*
X648808Y223015D01*
X646798Y225635D01*
X644178Y227645D01*
X641622Y228704D01*
Y230079D01*
X644178Y231138D01*
X646798Y233148D01*
X648808Y235767D01*
X650071Y238818D01*
X650502Y242091D01*
X650071Y245365D01*
X648808Y248415D01*
X646798Y251035D01*
X644178Y253045D01*
X641622Y254104D01*
Y255479D01*
X644178Y256538D01*
X646798Y258548D01*
X648808Y261167D01*
X650071Y264218D01*
X650502Y267491D01*
X650071Y270765D01*
X648808Y273815D01*
X646798Y276435D01*
X644178Y278445D01*
X641622Y279504D01*
Y280879D01*
X644178Y281938D01*
X646798Y283948D01*
X648808Y286567D01*
X650071Y289618D01*
X650502Y292891D01*
X650071Y296165D01*
X648808Y299215D01*
X646798Y301835D01*
X644178Y303845D01*
X641622Y304904D01*
Y306279D01*
X644178Y307338D01*
X646798Y309348D01*
X648808Y311967D01*
X650071Y315018D01*
X650502Y318291D01*
X650071Y321565D01*
X648808Y324615D01*
X646798Y327235D01*
X644178Y329245D01*
X641622Y330304D01*
Y331679D01*
X644178Y332738D01*
X646798Y334748D01*
X648808Y337367D01*
X650071Y340418D01*
X650502Y343691D01*
X650071Y346965D01*
X648808Y350015D01*
X646798Y352635D01*
X644178Y354645D01*
X641622Y355704D01*
Y357079D01*
X644178Y358138D01*
X646503Y359921D01*
X647800D01*
X647800Y359921D01*
X650421Y360266D01*
X652863Y361278D01*
X654960Y362887D01*
X687160Y395087D01*
X687160Y395087D01*
X688770Y397185D01*
X689781Y399627D01*
X690127Y402248D01*
X690126Y402248D01*
Y569999D01*
X690127Y570000D01*
X690127Y570000D01*
Y635805D01*
X792403Y738082D01*
X797622D01*
X800000Y737769D01*
X802751Y738131D01*
X805315Y739193D01*
X807517Y740883D01*
X809207Y743084D01*
X810269Y745648D01*
X810631Y748400D01*
Y752400D01*
X810269Y755152D01*
X809207Y757716D01*
X807517Y759917D01*
X805315Y761607D01*
X803370Y762413D01*
Y763787D01*
X805315Y764593D01*
X806723Y765673D01*
X815005D01*
X834873Y745805D01*
Y695000D01*
X834873Y695000D01*
X835218Y692379D01*
X836230Y689937D01*
X837839Y687839D01*
X852281Y673398D01*
X852421Y671749D01*
X852417Y671738D01*
X822839Y642161D01*
X821230Y640063D01*
X820218Y637621D01*
X819873Y635000D01*
X819873Y635000D01*
Y562854D01*
X800911Y543891D01*
X800050Y544259D01*
X799762Y544539D01*
X799919Y545730D01*
X791270D01*
Y537081D01*
X791743Y537143D01*
X792075Y535906D01*
X791650Y535730D01*
X789661Y534203D01*
X786727Y533817D01*
X783676Y532554D01*
X781057Y530544D01*
X779046Y527924D01*
X777783Y524874D01*
X777352Y521600D01*
X777783Y518326D01*
X779046Y515276D01*
X781057Y512656D01*
X783676Y510646D01*
X786233Y509587D01*
Y508213D01*
X783676Y507154D01*
X781057Y505144D01*
X779046Y502524D01*
X777783Y499474D01*
X777352Y496200D01*
X777783Y492926D01*
X779046Y489876D01*
X781057Y487256D01*
X783676Y485246D01*
X786233Y484187D01*
Y482813D01*
X783676Y481754D01*
X781057Y479744D01*
X779046Y477124D01*
X777783Y474074D01*
X777352Y470800D01*
X777783Y467526D01*
X779046Y464476D01*
X781057Y461856D01*
X783676Y459846D01*
X786233Y458787D01*
Y457413D01*
X783676Y456354D01*
X781057Y454344D01*
X779046Y451724D01*
X777783Y448674D01*
X777352Y445400D01*
X777783Y442126D01*
X779046Y439076D01*
X781057Y436456D01*
X783676Y434446D01*
X786233Y433387D01*
Y432013D01*
X783676Y430954D01*
X781057Y428944D01*
X779046Y426324D01*
X777783Y423274D01*
X777352Y420000D01*
X777783Y416726D01*
X779046Y413676D01*
X781057Y411056D01*
X783676Y409046D01*
X786233Y407987D01*
Y406613D01*
X783676Y405554D01*
X781057Y403544D01*
X779046Y400924D01*
X777783Y397874D01*
X777352Y394600D01*
X777783Y391326D01*
X779046Y388276D01*
X781057Y385656D01*
X783676Y383646D01*
X786233Y382587D01*
Y381213D01*
X783676Y380154D01*
X781057Y378144D01*
X779046Y375524D01*
X777783Y372474D01*
X777352Y369200D01*
X777783Y365926D01*
X779046Y362876D01*
X781057Y360256D01*
X783676Y358246D01*
X786233Y357187D01*
Y355813D01*
X783676Y354754D01*
X781057Y352744D01*
X779046Y350124D01*
X777783Y347074D01*
X777352Y343800D01*
X777783Y340526D01*
X779046Y337476D01*
X781057Y334856D01*
X783676Y332846D01*
X786233Y331787D01*
Y330413D01*
X783676Y329354D01*
X781057Y327344D01*
X779046Y324724D01*
X777783Y321674D01*
X777352Y318400D01*
X777783Y315126D01*
X779046Y312076D01*
X781057Y309456D01*
X783676Y307446D01*
X786233Y306387D01*
Y305013D01*
X783676Y303954D01*
X781057Y301944D01*
X779046Y299324D01*
X777783Y296274D01*
X777352Y293000D01*
X777783Y289726D01*
X779046Y286676D01*
X781057Y284056D01*
X783676Y282046D01*
X786233Y280987D01*
Y279613D01*
X783676Y278554D01*
X781057Y276544D01*
X779046Y273924D01*
X777783Y270874D01*
X777352Y267600D01*
X777783Y264326D01*
X779046Y261276D01*
X781057Y258656D01*
X783676Y256646D01*
X786233Y255587D01*
Y254213D01*
X783676Y253154D01*
X781057Y251144D01*
X779046Y248524D01*
X777783Y245474D01*
X777352Y242200D01*
X777783Y238926D01*
X779046Y235876D01*
X781057Y233256D01*
X783676Y231246D01*
X786233Y230187D01*
Y228813D01*
X783676Y227754D01*
X781057Y225744D01*
X779046Y223124D01*
X777783Y220074D01*
X777352Y216800D01*
X777783Y213526D01*
X779046Y210476D01*
X781057Y207856D01*
X783676Y205846D01*
X786233Y204787D01*
Y203413D01*
X783676Y202354D01*
X781057Y200344D01*
X779046Y197724D01*
X777783Y194674D01*
X777352Y191400D01*
X777783Y188126D01*
X779046Y185076D01*
X781057Y182456D01*
X783676Y180446D01*
X786233Y179387D01*
Y178013D01*
X783676Y176954D01*
X781057Y174944D01*
X779046Y172324D01*
X777783Y169274D01*
X777352Y166000D01*
X777783Y162726D01*
X779046Y159676D01*
X781057Y157056D01*
X783676Y155046D01*
X786233Y153987D01*
Y152613D01*
X783676Y151554D01*
X781057Y149544D01*
X779046Y146924D01*
X777783Y143874D01*
X777352Y140600D01*
X777783Y137326D01*
X779046Y134276D01*
X781057Y131656D01*
X783676Y129646D01*
X786233Y128587D01*
Y127213D01*
X783676Y126154D01*
X781057Y124144D01*
X779046Y121524D01*
X777783Y118474D01*
X777352Y115200D01*
X777783Y111926D01*
X779046Y108876D01*
X781057Y106256D01*
X783676Y104246D01*
X786614Y103029D01*
X786727Y102734D01*
Y102012D01*
X786614Y101717D01*
X783676Y100500D01*
X781057Y98490D01*
X779046Y95870D01*
X777783Y92820D01*
X777352Y89546D01*
X777783Y86272D01*
X779046Y83222D01*
X781057Y80602D01*
X783676Y78592D01*
X786727Y77329D01*
X790000Y76898D01*
X793274Y77329D01*
X796324Y78592D01*
X798944Y80602D01*
X800954Y83222D01*
X802217Y86272D01*
X802648Y89546D01*
X802217Y92820D01*
X800954Y95870D01*
X798944Y98490D01*
X796324Y100500D01*
X793386Y101717D01*
X793274Y102012D01*
Y102734D01*
X793386Y103029D01*
X796324Y104246D01*
X798944Y106256D01*
X800954Y108876D01*
X802217Y111926D01*
X802648Y115200D01*
X802217Y118474D01*
X800954Y121524D01*
X798944Y124144D01*
X796324Y126154D01*
X793768Y127213D01*
Y128587D01*
X796324Y129646D01*
X798944Y131656D01*
X800954Y134276D01*
X802217Y137326D01*
X802648Y140600D01*
X802217Y143874D01*
X800954Y146924D01*
X798944Y149544D01*
X796324Y151554D01*
X793768Y152613D01*
Y153987D01*
X796324Y155046D01*
X798944Y157056D01*
X800954Y159676D01*
X802217Y162726D01*
X802648Y166000D01*
X802217Y169274D01*
X800954Y172324D01*
X798944Y174944D01*
X796324Y176954D01*
X793768Y178013D01*
Y179387D01*
X796324Y180446D01*
X798944Y182456D01*
X800954Y185076D01*
X802217Y188126D01*
X802648Y191400D01*
X802217Y194674D01*
X800954Y197724D01*
X798944Y200344D01*
X796324Y202354D01*
X793768Y203413D01*
Y204787D01*
X796324Y205846D01*
X798944Y207856D01*
X800954Y210476D01*
X802217Y213526D01*
X802648Y216800D01*
X802217Y220074D01*
X800954Y223124D01*
X798944Y225744D01*
X796324Y227754D01*
X793768Y228813D01*
Y230187D01*
X796324Y231246D01*
X798944Y233256D01*
X800954Y235876D01*
X802217Y238926D01*
X802648Y242200D01*
X802217Y245474D01*
X800954Y248524D01*
X798944Y251144D01*
X796324Y253154D01*
X793768Y254213D01*
Y255587D01*
X796324Y256646D01*
X798944Y258656D01*
X800954Y261276D01*
X802217Y264326D01*
X802648Y267600D01*
X802217Y270874D01*
X800954Y273924D01*
X798944Y276544D01*
X796324Y278554D01*
X793768Y279613D01*
Y280987D01*
X796324Y282046D01*
X798944Y284056D01*
X800954Y286676D01*
X802217Y289726D01*
X802648Y293000D01*
X802217Y296274D01*
X800954Y299324D01*
X798944Y301944D01*
X796324Y303954D01*
X793768Y305013D01*
Y306387D01*
X796324Y307446D01*
X798944Y309456D01*
X799197Y309786D01*
X1016600D01*
X1018830Y310080D01*
X1019690Y310436D01*
X1020907Y310940D01*
X1022691Y312309D01*
X1087986Y377604D01*
X1088952Y377731D01*
X1091516Y378793D01*
X1093717Y380483D01*
X1095407Y382685D01*
X1096469Y385249D01*
X1096831Y388000D01*
Y392000D01*
X1096469Y394752D01*
X1095407Y397316D01*
X1093717Y399517D01*
X1091516Y401207D01*
X1088952Y402269D01*
X1086200Y402631D01*
X1083449Y402269D01*
X1080885Y401207D01*
X1078683Y399517D01*
X1076994Y397316D01*
X1075932Y394752D01*
X1075569Y392000D01*
Y389551D01*
X1072514Y386496D01*
X1071311Y387089D01*
X1071431Y388000D01*
Y392000D01*
X1071069Y394752D01*
X1070007Y397316D01*
X1068317Y399517D01*
X1066116Y401207D01*
X1063552Y402269D01*
X1060800Y402631D01*
X1058049Y402269D01*
X1055485Y401207D01*
X1053283Y399517D01*
X1051594Y397316D01*
X1050532Y394752D01*
X1050169Y392000D01*
Y389551D01*
X1047114Y386496D01*
X1045911Y387089D01*
X1046031Y388000D01*
Y392000D01*
X1045669Y394752D01*
X1044607Y397316D01*
X1042917Y399517D01*
X1040716Y401207D01*
X1038152Y402269D01*
X1035400Y402631D01*
X1034995Y402578D01*
X1022942Y414631D01*
X1021158Y416000D01*
X1019081Y416860D01*
X1016851Y417154D01*
X948540D01*
X946311Y416860D01*
X944233Y416000D01*
X942449Y414631D01*
X931531Y403713D01*
X798724D01*
X796324Y405554D01*
X793768Y406613D01*
Y407987D01*
X796324Y409046D01*
X798944Y411056D01*
X800371Y412917D01*
X810731D01*
X812960Y413210D01*
X813820Y413567D01*
X815038Y414071D01*
X816822Y415440D01*
X939849Y538468D01*
X940698Y537977D01*
X940940Y537762D01*
Y535163D01*
X941633Y532579D01*
X942970Y530262D01*
X944862Y528370D01*
X947179Y527033D01*
X949763Y526340D01*
X952438D01*
X955022Y527033D01*
X957339Y528370D01*
X959230Y530262D01*
X960568Y532579D01*
X961260Y535163D01*
Y537838D01*
X960568Y540422D01*
X959230Y542739D01*
X957339Y544630D01*
X955022Y545968D01*
X952438Y546660D01*
X949838D01*
X949623Y546902D01*
X949133Y547751D01*
X953372Y551991D01*
X955022Y552433D01*
X957339Y553770D01*
X959230Y555662D01*
X960568Y557979D01*
X961260Y560563D01*
Y563238D01*
X960568Y565822D01*
X959230Y568139D01*
X957339Y570030D01*
X955022Y571368D01*
X952438Y572060D01*
X949838D01*
X949623Y572302D01*
X949133Y573151D01*
X953372Y577391D01*
X955022Y577833D01*
X957339Y579170D01*
X959230Y581062D01*
X960568Y583379D01*
X961260Y585963D01*
Y588638D01*
X960568Y591222D01*
X959230Y593539D01*
X957339Y595430D01*
X955022Y596768D01*
X952438Y597460D01*
X949763D01*
X947179Y596768D01*
X944862Y595430D01*
X942970Y593539D01*
X941633Y591222D01*
X941191Y589572D01*
X807163Y455544D01*
X797379D01*
X796324Y456354D01*
X793768Y457413D01*
Y458787D01*
X796324Y459846D01*
X798944Y461856D01*
X800954Y464476D01*
X802217Y467526D01*
X802648Y470800D01*
X802217Y474074D01*
X800954Y477124D01*
X798944Y479744D01*
X796324Y481754D01*
X793768Y482813D01*
Y484187D01*
X796324Y485246D01*
X798944Y487256D01*
X800954Y489876D01*
X802217Y492926D01*
X802648Y496200D01*
X802217Y499474D01*
X800954Y502524D01*
X798944Y505144D01*
X796324Y507154D01*
X793768Y508213D01*
Y509587D01*
X796324Y510646D01*
X798944Y512656D01*
X800954Y515276D01*
X801912Y517588D01*
X803364Y518190D01*
X805462Y519799D01*
X837160Y551498D01*
X837161Y551498D01*
X838770Y553596D01*
X839782Y556038D01*
X840127Y558659D01*
Y630805D01*
X867500Y658179D01*
X872839Y652840D01*
X872839Y652839D01*
X874937Y651230D01*
X877379Y650219D01*
X880000Y649873D01*
X880000Y649873D01*
X885000D01*
X887621Y650219D01*
X889412Y650960D01*
X894040D01*
Y655589D01*
X894782Y657379D01*
X895127Y660000D01*
X894782Y662621D01*
X894040Y664411D01*
Y669040D01*
X894965Y669873D01*
X930341D01*
X943875Y656340D01*
X943875Y656340D01*
X943951Y656281D01*
X944862Y655370D01*
X944974Y655306D01*
X950846Y649434D01*
X950360Y648260D01*
X949763D01*
X947179Y647568D01*
X944862Y646230D01*
X942970Y644339D01*
X941633Y642022D01*
X940940Y639438D01*
Y636763D01*
X941633Y634179D01*
X942970Y631862D01*
X944862Y629970D01*
X947179Y628633D01*
X949763Y627940D01*
X952438D01*
X955022Y628633D01*
X957339Y629970D01*
X959230Y631862D01*
X960568Y634179D01*
X961260Y636763D01*
Y637360D01*
X962433Y637846D01*
X999873Y600406D01*
Y505000D01*
X999873Y505000D01*
X1000218Y502379D01*
X1001230Y499937D01*
X1002839Y497839D01*
X1062839Y437840D01*
X1062839Y437839D01*
X1064937Y436230D01*
X1067379Y435218D01*
X1070000Y434873D01*
X1155805D01*
X1204873Y385805D01*
Y104195D01*
X1140805Y40127D01*
X519195D01*
X286821Y272500D01*
X357882Y343561D01*
X440805D01*
X488731Y295636D01*
X488793Y295484D01*
X490482Y293283D01*
X492684Y291593D01*
X495248Y290531D01*
X498000Y290169D01*
X502000D01*
X504751Y290531D01*
X507315Y291593D01*
X509517Y293283D01*
X511206Y295484D01*
X512268Y298048D01*
X512631Y300800D01*
X512268Y303551D01*
X511206Y306115D01*
X509517Y308317D01*
X507315Y310007D01*
X504751Y311069D01*
X502000Y311431D01*
X501578D01*
X498709Y314299D01*
X499236Y315569D01*
X502000D01*
X504751Y315931D01*
X507315Y316993D01*
X509517Y318683D01*
X511206Y320884D01*
X512268Y323448D01*
X512631Y326200D01*
X512268Y328951D01*
X511206Y331515D01*
X509517Y333717D01*
X507315Y335406D01*
X504751Y336469D01*
X502000Y336831D01*
X498000D01*
X495248Y336469D01*
X492684Y335406D01*
X490482Y333717D01*
X488793Y331515D01*
X487731Y328951D01*
X487513Y327292D01*
X486172Y326837D01*
X456165Y356843D01*
X499195Y399873D01*
X510000D01*
X512621Y400219D01*
X514412Y400960D01*
X519040D01*
Y405589D01*
X519782Y407379D01*
X520127Y410000D01*
X519782Y412621D01*
X519040Y414411D01*
Y419040D01*
X514412D01*
X512621Y419782D01*
X510000Y420127D01*
X495000D01*
X492379Y419782D01*
X489937Y418770D01*
X487840Y417161D01*
X487840Y417161D01*
X437839Y367160D01*
X436230Y365063D01*
X435713Y363814D01*
X353687D01*
X353687Y363814D01*
X351066Y363469D01*
X348624Y362457D01*
X346527Y360848D01*
X346526Y360848D01*
X281300Y295621D01*
X280127Y296107D01*
Y387206D01*
X292881Y399960D01*
X298640D01*
Y404718D01*
X299910Y404971D01*
X300446Y403676D01*
X302456Y401056D01*
X305076Y399046D01*
X308127Y397783D01*
X311400Y397352D01*
X355000D01*
X358273Y397783D01*
X361324Y399046D01*
X363492Y400710D01*
X364290D01*
Y401508D01*
X365953Y403676D01*
X367217Y406726D01*
X367648Y410000D01*
X367217Y413274D01*
X365953Y416324D01*
X364290Y418492D01*
Y419290D01*
X363492D01*
X361324Y420954D01*
X358273Y422217D01*
X355000Y422648D01*
X311400D01*
X308127Y422217D01*
X305076Y420954D01*
X302456Y418944D01*
X300446Y416324D01*
X299910Y415029D01*
X298640Y415282D01*
Y420040D01*
X289258D01*
X288600Y420127D01*
X249195D01*
X210126Y459195D01*
Y494905D01*
X210269Y495248D01*
X210631Y498000D01*
Y502000D01*
X210269Y504751D01*
X209207Y507315D01*
X207517Y509517D01*
X205315Y511207D01*
X202751Y512269D01*
X200000Y512631D01*
X197248Y512269D01*
X194684Y511207D01*
X192483Y509517D01*
X190793Y507315D01*
X189731Y504751D01*
X189369Y502000D01*
Y498000D01*
X189731Y495248D01*
X189873Y494905D01*
Y455000D01*
X189873Y455000D01*
X190218Y452379D01*
X191230Y449937D01*
X192839Y447840D01*
X237839Y402840D01*
X237839Y402839D01*
X239937Y401230D01*
X242379Y400219D01*
X245000Y399873D01*
X245000Y399873D01*
X262493D01*
X262979Y398700D01*
X262840Y398561D01*
X261230Y396463D01*
X260219Y394021D01*
X259874Y391400D01*
X259874Y391400D01*
Y275000D01*
X259874Y275000D01*
X260219Y272379D01*
X261230Y269937D01*
X262840Y267839D01*
X265339Y265340D01*
X265339Y265339D01*
X265340Y265339D01*
X270339Y260340D01*
X270339Y260339D01*
X507839Y22839D01*
X509937Y21230D01*
X512379Y20218D01*
X515000Y19873D01*
X515000Y19873D01*
X1145000D01*
X1145000Y19873D01*
X1147621Y20218D01*
X1150063Y21230D01*
X1152161Y22839D01*
X1222161Y92839D01*
X1223770Y94937D01*
X1224782Y97379D01*
X1225127Y100000D01*
X1225127Y100000D01*
Y390000D01*
X1224782Y392621D01*
X1223770Y395063D01*
X1222161Y397161D01*
X1222160Y397161D01*
X1167161Y452161D01*
X1165063Y453770D01*
X1162621Y454782D01*
X1160000Y455127D01*
X1160000Y455127D01*
X1074195D01*
X1020127Y509195D01*
Y604600D01*
X1020127Y604600D01*
X1019782Y607221D01*
X1018770Y609664D01*
X1017161Y611761D01*
X1017160Y611761D01*
X959295Y669627D01*
X959230Y669739D01*
X957339Y671630D01*
X957073Y671784D01*
X941696Y687161D01*
X939599Y688770D01*
X937156Y689782D01*
X934535Y690127D01*
X934535Y690127D01*
X864195D01*
X855127Y699195D01*
Y750000D01*
X855127Y750000D01*
X854782Y752621D01*
X853770Y755063D01*
X852161Y757161D01*
X852160Y757161D01*
X826361Y782961D01*
X824263Y784570D01*
X821821Y785582D01*
X819200Y785927D01*
X819200Y785927D01*
X806723D01*
X805315Y787007D01*
X802751Y788069D01*
X800000Y788431D01*
D02*
G37*
G36*
X502000Y283469D02*
X501270D01*
Y276670D01*
X509902D01*
X509794Y277488D01*
X508988Y279434D01*
X507705Y281105D01*
X506034Y282388D01*
X504088Y283194D01*
X502000Y283469D01*
D02*
G37*
G36*
X498730D02*
X498000D01*
X495911Y283194D01*
X493965Y282388D01*
X492294Y281105D01*
X491012Y279434D01*
X490206Y277488D01*
X490098Y276670D01*
X498730D01*
Y283469D01*
D02*
G37*
G36*
X509902Y274130D02*
X501270D01*
Y267331D01*
X502000D01*
X504088Y267606D01*
X506034Y268412D01*
X507705Y269694D01*
X508988Y271365D01*
X509794Y273311D01*
X509902Y274130D01*
D02*
G37*
G36*
X498730D02*
X490098D01*
X490206Y273311D01*
X491012Y271365D01*
X492294Y269694D01*
X493965Y268412D01*
X495911Y267606D01*
X498000Y267331D01*
X498730D01*
Y274130D01*
D02*
G37*
G36*
X886270Y201389D02*
Y196270D01*
X891389D01*
X891057Y197509D01*
X890201Y198991D01*
X888991Y200201D01*
X887509Y201057D01*
X886270Y201389D01*
D02*
G37*
G36*
X883730D02*
X882491Y201057D01*
X881009Y200201D01*
X879799Y198991D01*
X878943Y197509D01*
X878611Y196270D01*
X883730D01*
Y201389D01*
D02*
G37*
G36*
X891389Y193730D02*
X886270D01*
Y188611D01*
X887509Y188943D01*
X888991Y189799D01*
X890201Y191009D01*
X891057Y192491D01*
X891389Y193730D01*
D02*
G37*
G36*
X883730D02*
X878611D01*
X878943Y192491D01*
X879799Y191009D01*
X881009Y189799D01*
X882491Y188943D01*
X883730Y188611D01*
Y193730D01*
D02*
G37*
G36*
X502000Y209831D02*
X498000D01*
X495248Y209469D01*
X492684Y208407D01*
X490482Y206717D01*
X488793Y204515D01*
X487731Y201951D01*
X487369Y199200D01*
X487731Y196448D01*
X488793Y193884D01*
X490482Y191683D01*
X492684Y189993D01*
X495248Y188931D01*
X498000Y188569D01*
X502000D01*
X504751Y188931D01*
X507315Y189993D01*
X509517Y191683D01*
X511206Y193884D01*
X512268Y196448D01*
X512631Y199200D01*
X512268Y201951D01*
X511206Y204515D01*
X509517Y206717D01*
X507315Y208407D01*
X504751Y209469D01*
X502000Y209831D01*
D02*
G37*
G36*
Y184431D02*
X498000D01*
X495248Y184069D01*
X492684Y183006D01*
X490482Y181317D01*
X488793Y179115D01*
X487731Y176551D01*
X487369Y173800D01*
X487731Y171048D01*
X488793Y168484D01*
X490482Y166283D01*
X492684Y164593D01*
X495248Y163531D01*
X498000Y163169D01*
X502000D01*
X504751Y163531D01*
X507315Y164593D01*
X509517Y166283D01*
X511206Y168484D01*
X512268Y171048D01*
X512631Y173800D01*
X512268Y176551D01*
X511206Y179115D01*
X509517Y181317D01*
X507315Y183006D01*
X504751Y184069D01*
X502000Y184431D01*
D02*
G37*
G36*
Y159031D02*
X498000D01*
X495248Y158669D01*
X492684Y157606D01*
X490482Y155917D01*
X488793Y153715D01*
X487731Y151151D01*
X487369Y148400D01*
X487731Y145648D01*
X488793Y143084D01*
X490482Y140883D01*
X492684Y139193D01*
X495248Y138131D01*
X498000Y137769D01*
X502000D01*
X504751Y138131D01*
X507315Y139193D01*
X509517Y140883D01*
X511206Y143084D01*
X512268Y145648D01*
X512631Y148400D01*
X512268Y151151D01*
X511206Y153715D01*
X509517Y155917D01*
X507315Y157606D01*
X504751Y158669D01*
X502000Y159031D01*
D02*
G37*
G36*
X639124Y125010D02*
Y116361D01*
X647773D01*
X647597Y117702D01*
X646589Y120134D01*
X644986Y122223D01*
X642897Y123826D01*
X640465Y124834D01*
X639124Y125010D01*
D02*
G37*
G36*
X636584D02*
X635244Y124834D01*
X632811Y123826D01*
X630722Y122223D01*
X629119Y120134D01*
X628112Y117702D01*
X627935Y116361D01*
X636584D01*
Y125010D01*
D02*
G37*
G36*
X512540Y133540D02*
X487460D01*
Y112460D01*
X512540D01*
Y133540D01*
D02*
G37*
G36*
X1139070Y119902D02*
Y111270D01*
X1145869D01*
Y112000D01*
X1145594Y114089D01*
X1144788Y116035D01*
X1143505Y117706D01*
X1141834Y118988D01*
X1139888Y119794D01*
X1139070Y119902D01*
D02*
G37*
G36*
X1136530D02*
X1135711Y119794D01*
X1133765Y118988D01*
X1132094Y117706D01*
X1130812Y116035D01*
X1130006Y114089D01*
X1129731Y112000D01*
Y111270D01*
X1136530D01*
Y119902D01*
D02*
G37*
G36*
X647773Y113821D02*
X639124D01*
Y105172D01*
X640465Y105349D01*
X642897Y106356D01*
X644986Y107959D01*
X646589Y110048D01*
X647597Y112481D01*
X647773Y113821D01*
D02*
G37*
G36*
X636584D02*
X627935D01*
X628112Y112481D01*
X629119Y110048D01*
X630722Y107959D01*
X632811Y106356D01*
X635244Y105349D01*
X636584Y105172D01*
Y113821D01*
D02*
G37*
G36*
X1145869Y108730D02*
X1139070D01*
Y100098D01*
X1139888Y100206D01*
X1141834Y101012D01*
X1143505Y102295D01*
X1144788Y103966D01*
X1145594Y105912D01*
X1145869Y108000D01*
Y108730D01*
D02*
G37*
G36*
X1136530D02*
X1129731D01*
Y108000D01*
X1130006Y105912D01*
X1130812Y103966D01*
X1132094Y102295D01*
X1133765Y101012D01*
X1135711Y100206D01*
X1136530Y100098D01*
Y108730D01*
D02*
G37*
G36*
X995940Y122540D02*
X974860D01*
Y97460D01*
X995940D01*
Y122540D01*
D02*
G37*
G36*
X1163200Y122631D02*
X1160448Y122269D01*
X1157884Y121207D01*
X1155683Y119517D01*
X1153993Y117316D01*
X1152931Y114752D01*
X1152569Y112000D01*
Y108000D01*
X1152931Y105249D01*
X1153993Y102685D01*
X1155683Y100483D01*
X1157884Y98793D01*
X1160448Y97731D01*
X1163200Y97369D01*
X1165951Y97731D01*
X1168515Y98793D01*
X1170717Y100483D01*
X1172406Y102685D01*
X1173469Y105249D01*
X1173831Y108000D01*
Y112000D01*
X1173469Y114752D01*
X1172406Y117316D01*
X1170717Y119517D01*
X1168515Y121207D01*
X1165951Y122269D01*
X1163200Y122631D01*
D02*
G37*
G36*
X1112400D02*
X1109648Y122269D01*
X1107084Y121207D01*
X1104883Y119517D01*
X1103193Y117316D01*
X1102131Y114752D01*
X1101769Y112000D01*
Y108000D01*
X1102131Y105249D01*
X1103193Y102685D01*
X1104883Y100483D01*
X1107084Y98793D01*
X1109648Y97731D01*
X1112400Y97369D01*
X1115151Y97731D01*
X1117715Y98793D01*
X1119917Y100483D01*
X1121607Y102685D01*
X1122669Y105249D01*
X1123031Y108000D01*
Y112000D01*
X1122669Y114752D01*
X1121607Y117316D01*
X1119917Y119517D01*
X1117715Y121207D01*
X1115151Y122269D01*
X1112400Y122631D01*
D02*
G37*
G36*
X1087000D02*
X1084248Y122269D01*
X1081684Y121207D01*
X1079483Y119517D01*
X1077793Y117316D01*
X1076731Y114752D01*
X1076369Y112000D01*
Y108000D01*
X1076731Y105249D01*
X1077793Y102685D01*
X1079483Y100483D01*
X1081684Y98793D01*
X1084248Y97731D01*
X1087000Y97369D01*
X1089751Y97731D01*
X1092315Y98793D01*
X1094517Y100483D01*
X1096207Y102685D01*
X1097269Y105249D01*
X1097631Y108000D01*
Y112000D01*
X1097269Y114752D01*
X1096207Y117316D01*
X1094517Y119517D01*
X1092315Y121207D01*
X1089751Y122269D01*
X1087000Y122631D01*
D02*
G37*
G36*
X1010800D02*
X1008048Y122269D01*
X1005484Y121207D01*
X1003283Y119517D01*
X1001593Y117316D01*
X1000531Y114752D01*
X1000169Y112000D01*
Y108000D01*
X1000531Y105249D01*
X1001593Y102685D01*
X1003283Y100483D01*
X1005484Y98793D01*
X1008048Y97731D01*
X1010800Y97369D01*
X1013551Y97731D01*
X1016115Y98793D01*
X1018317Y100483D01*
X1020006Y102685D01*
X1021069Y105249D01*
X1021431Y108000D01*
Y112000D01*
X1021069Y114752D01*
X1020006Y117316D01*
X1018317Y119517D01*
X1016115Y121207D01*
X1013551Y122269D01*
X1010800Y122631D01*
D02*
G37*
G36*
X639124Y99610D02*
Y90961D01*
X647773D01*
X647597Y92302D01*
X646589Y94734D01*
X644986Y96823D01*
X642897Y98426D01*
X640465Y99434D01*
X639124Y99610D01*
D02*
G37*
G36*
X636584D02*
X635244Y99434D01*
X632811Y98426D01*
X630722Y96823D01*
X629119Y94734D01*
X628112Y92302D01*
X627935Y90961D01*
X636584D01*
Y99610D01*
D02*
G37*
G36*
X647773Y88421D02*
X639124D01*
Y79772D01*
X640465Y79949D01*
X642897Y80956D01*
X644986Y82559D01*
X646589Y84648D01*
X647597Y87081D01*
X647773Y88421D01*
D02*
G37*
G36*
X636584D02*
X627935D01*
X628112Y87081D01*
X629119Y84648D01*
X630722Y82559D01*
X632811Y80956D01*
X635244Y79949D01*
X636584Y79772D01*
Y88421D01*
D02*
G37*
G36*
X1327462Y75000D02*
X1326270D01*
Y51270D01*
X1350000D01*
Y52462D01*
X1349039Y57292D01*
X1347155Y61842D01*
X1344419Y65936D01*
X1340937Y69419D01*
X1336842Y72154D01*
X1332292Y74039D01*
X1327462Y75000D01*
D02*
G37*
G36*
X1323730D02*
X1322538D01*
X1317708Y74039D01*
X1313158Y72154D01*
X1309064Y69419D01*
X1305581Y65936D01*
X1302845Y61842D01*
X1300961Y57292D01*
X1300000Y52462D01*
Y51270D01*
X1323730D01*
Y75000D01*
D02*
G37*
G36*
X52462D02*
X51270D01*
Y51270D01*
X75000D01*
Y52462D01*
X74039Y57292D01*
X72154Y61842D01*
X69419Y65936D01*
X65936Y69419D01*
X61842Y72154D01*
X57292Y74039D01*
X52462Y75000D01*
D02*
G37*
G36*
X48730D02*
X47538D01*
X42708Y74039D01*
X38158Y72154D01*
X34063Y69419D01*
X30581Y65936D01*
X27845Y61842D01*
X25961Y57292D01*
X25000Y52462D01*
Y51270D01*
X48730D01*
Y75000D01*
D02*
G37*
G36*
X1350000Y48730D02*
X1326270D01*
Y25000D01*
X1327462D01*
X1332292Y25961D01*
X1336842Y27845D01*
X1340937Y30581D01*
X1344419Y34063D01*
X1347155Y38158D01*
X1349039Y42708D01*
X1350000Y47538D01*
Y48730D01*
D02*
G37*
G36*
X1323730D02*
X1300000D01*
Y47538D01*
X1300961Y42708D01*
X1302845Y38158D01*
X1305581Y34063D01*
X1309064Y30581D01*
X1313158Y27845D01*
X1317708Y25961D01*
X1322538Y25000D01*
X1323730D01*
Y48730D01*
D02*
G37*
G36*
X75000D02*
X51270D01*
Y25000D01*
X52462D01*
X57292Y25961D01*
X61842Y27845D01*
X65936Y30581D01*
X69419Y34063D01*
X72154Y38158D01*
X74039Y42708D01*
X75000Y47538D01*
Y48730D01*
D02*
G37*
G36*
X48730D02*
X25000D01*
Y47538D01*
X25961Y42708D01*
X27845Y38158D01*
X30581Y34063D01*
X34063Y30581D01*
X38158Y27845D01*
X42708Y25961D01*
X47538Y25000D01*
X48730D01*
Y48730D01*
D02*
G37*
%LPD*%
G36*
X976600Y391270D02*
X984600D01*
Y390000D01*
X985870D01*
Y380000D01*
X991022D01*
X991548Y378730D01*
X986432Y373614D01*
X801745D01*
X800954Y375524D01*
X798944Y378144D01*
X796324Y380154D01*
X793768Y381213D01*
Y382587D01*
X796324Y383646D01*
X798944Y385656D01*
X799580Y386485D01*
X935099D01*
X937328Y386779D01*
X938189Y387135D01*
X939406Y387639D01*
X941190Y389008D01*
X952108Y399926D01*
X976600D01*
Y391270D01*
D02*
G37*
G36*
X1024769Y388441D02*
Y388000D01*
X1025132Y385249D01*
X1026194Y382685D01*
X1027883Y380483D01*
X1030085Y378793D01*
X1032649Y377731D01*
X1035400Y377369D01*
X1036312Y377489D01*
X1036905Y376286D01*
X1013032Y352414D01*
X799197D01*
X798944Y352744D01*
X796324Y354754D01*
X795061Y355277D01*
X795393Y356514D01*
X796365Y356386D01*
X990000D01*
X992229Y356680D01*
X993090Y357036D01*
X994307Y357540D01*
X996091Y358909D01*
X1015325Y378144D01*
X1016551Y379742D01*
X1017517Y380483D01*
X1019207Y382685D01*
X1020269Y385249D01*
X1020631Y388000D01*
Y390783D01*
X1021901Y391309D01*
X1024769Y388441D01*
D02*
G37*
G36*
X1021039Y335020D02*
X1013032Y327014D01*
X799197D01*
X798944Y327344D01*
X796324Y329354D01*
X793768Y330413D01*
Y331787D01*
X796324Y332846D01*
X798944Y334856D01*
X799197Y335186D01*
X1016600D01*
X1018830Y335480D01*
X1020320Y336097D01*
X1021039Y335020D01*
D02*
G37*
%LPC*%
G36*
X983330Y388730D02*
X976600D01*
Y380000D01*
X983330D01*
Y388730D01*
D02*
G37*
%LPD*%
D29*
X353687Y353687D02*
X445000D01*
X272500Y272500D02*
X353687Y353687D01*
X277500Y267500D02*
X515000Y30000D01*
X445000Y353687D02*
X497887Y300800D01*
X495000Y410000D02*
X510000D01*
X445000Y360000D02*
X495000Y410000D01*
X497887Y300800D02*
X500000D01*
X270000Y275000D02*
X277500Y267500D01*
X270000Y275000D02*
Y391400D01*
X288600Y410000D01*
X330000Y615000D02*
X410000D01*
X455000D01*
X500000Y550000D02*
Y570000D01*
X455000Y615000D02*
X500000Y570000D01*
Y485000D02*
X539709Y445291D01*
X500000Y485000D02*
Y550000D01*
X819200Y775800D02*
X845000Y750000D01*
X800000Y775800D02*
X819200D01*
X845000Y695000D02*
Y750000D01*
X680000Y570000D02*
Y640000D01*
X680000Y570000D02*
X680000Y570000D01*
X800000Y748671D02*
Y750400D01*
X799538Y748209D02*
X800000Y748671D01*
X788209Y748209D02*
X799538D01*
X680000Y640000D02*
X788209Y748209D01*
X867500Y672500D02*
X880000Y660000D01*
X860000Y680000D02*
X867500Y672500D01*
X830000Y635000D02*
X867500Y672500D01*
X845000Y695000D02*
X860000Y680000D01*
X1010000Y505000D02*
Y604600D01*
X1070000Y445000D02*
X1160000D01*
X1010000Y505000D02*
X1070000Y445000D01*
X1145000Y30000D02*
X1215000Y100000D01*
X1160000Y445000D02*
X1215000Y390000D01*
Y100000D02*
Y390000D01*
X515000Y30000D02*
X1145000D01*
X1025000Y60000D02*
X1061408Y96409D01*
X740000Y60000D02*
X1025000D01*
X659509Y140491D02*
X740000Y60000D01*
X951100Y663500D02*
X1010000Y604600D01*
X680000Y402248D02*
Y570000D01*
X647800Y370048D02*
X680000Y402248D01*
X860000Y680000D02*
X934535D01*
X830000Y558659D02*
Y635000D01*
X798301Y526960D02*
X830000Y558659D01*
X880000Y660000D02*
X885000D01*
X796713Y526960D02*
X798301D01*
X791353Y521600D02*
X796713Y526960D01*
X790000Y521600D02*
X791353D01*
X637854Y140491D02*
X659509D01*
X951035Y663500D02*
X951100D01*
X934535Y680000D02*
X951035Y663500D01*
X1061600Y110000D02*
Y112112D01*
X1061408Y109809D02*
X1061600Y110000D01*
X998712Y175000D02*
X1061600Y112112D01*
X885000Y175000D02*
X998712D01*
X1061408Y96409D02*
Y109809D01*
X515066Y250066D02*
X535000Y270000D01*
X500066Y250066D02*
X515066D01*
X535000Y270000D02*
Y345000D01*
X524599Y224600D02*
X560000Y260000D01*
X500000Y224600D02*
X524599D01*
X560000Y260000D02*
Y333699D01*
X539709Y445291D02*
X637854D01*
X245000Y410000D02*
X288600D01*
X200000Y455000D02*
Y500000D01*
Y455000D02*
X245000Y410000D01*
X637854Y369091D02*
X638811Y370048D01*
X620792Y394491D02*
X637854D01*
X560000Y333699D02*
X620792Y394491D01*
X638811Y370048D02*
X647800D01*
X609891Y419891D02*
X637854D01*
X535000Y345000D02*
X609891Y419891D01*
X500000Y250000D02*
X500066Y250066D01*
D30*
X200000Y595000D02*
X270000Y525000D01*
X165000Y630000D02*
X200000Y595000D01*
X270000Y525000D02*
X330000D01*
X40000Y630000D02*
X165000D01*
X311400Y410000D02*
X355000D01*
X200000Y550800D02*
Y595000D01*
D31*
X1060800Y390000D02*
X1061200Y389600D01*
X1163200Y110000D02*
Y116600D01*
X1164823D01*
D32*
X791531Y446931D02*
X810731D01*
X790000Y445400D02*
X791531Y446931D01*
Y421531D02*
X810731D01*
X790000Y420000D02*
X791531Y421531D01*
X810731D02*
X951100Y561900D01*
X810731Y446931D02*
X951100Y587300D01*
X790499Y395099D02*
X935099D01*
X948540Y408540D01*
X1086200Y388000D02*
Y390000D01*
X1060800Y388000D02*
Y390000D01*
X1016600Y343800D02*
X1060800Y388000D01*
X1016600Y318400D02*
X1086200Y388000D01*
X790000Y369200D02*
X792165D01*
X790000Y394600D02*
X790499Y395099D01*
X796365Y365000D02*
X990000D01*
X790000Y318400D02*
X1016600D01*
X790000Y343800D02*
X1016600D01*
X792165Y369200D02*
X796365Y365000D01*
X1035400Y390000D02*
Y390918D01*
X990000Y365000D02*
X1009235Y384235D01*
Y389235D02*
X1010000Y390000D01*
X1009235Y384235D02*
Y389235D01*
X1032626Y392765D02*
X1033552D01*
X948540Y408540D02*
X1016851D01*
X1033552Y392765D02*
X1035400Y390918D01*
X1016851Y408540D02*
X1032626Y392765D01*
D33*
X500000Y148400D02*
D03*
Y173800D02*
D03*
Y199200D02*
D03*
Y224600D02*
D03*
Y250000D02*
D03*
Y275400D02*
D03*
Y300800D02*
D03*
Y326200D02*
D03*
D34*
Y123000D02*
D03*
D35*
X1325000Y800000D02*
D03*
X50000Y800000D02*
D03*
X50000Y50000D02*
D03*
X1325000D02*
D03*
D36*
X790000Y496200D02*
D03*
Y521600D02*
D03*
Y572400D02*
D03*
Y470800D02*
D03*
Y547000D02*
D03*
Y445400D02*
D03*
X637854Y191291D02*
D03*
Y89691D02*
D03*
Y165891D02*
D03*
Y140491D02*
D03*
Y115091D02*
D03*
Y216691D02*
D03*
Y242091D02*
D03*
Y292891D02*
D03*
Y318291D02*
D03*
Y343691D02*
D03*
Y267491D02*
D03*
Y369091D02*
D03*
Y419891D02*
D03*
Y572291D02*
D03*
Y546891D02*
D03*
Y521491D02*
D03*
Y496091D02*
D03*
Y394491D02*
D03*
Y470691D02*
D03*
Y445291D02*
D03*
X790000Y191400D02*
D03*
Y89546D02*
D03*
Y166000D02*
D03*
Y140600D02*
D03*
Y115200D02*
D03*
Y216800D02*
D03*
Y343800D02*
D03*
Y420000D02*
D03*
Y394600D02*
D03*
Y369200D02*
D03*
Y318400D02*
D03*
Y293000D02*
D03*
Y267600D02*
D03*
Y242200D02*
D03*
D37*
X40000Y430000D02*
D03*
Y630000D02*
D03*
D38*
X200000Y550800D02*
D03*
X984600Y390000D02*
D03*
X985400Y110000D02*
D03*
D39*
X200000Y500000D02*
D03*
Y525400D02*
D03*
X1137000Y390000D02*
D03*
X1111600D02*
D03*
X1086200D02*
D03*
X1060800D02*
D03*
X1035400D02*
D03*
X1010000D02*
D03*
X1163200Y110000D02*
D03*
X1137800D02*
D03*
X1112400D02*
D03*
X1087000D02*
D03*
X1061600D02*
D03*
X1036200D02*
D03*
X1010800D02*
D03*
X1162400Y390000D02*
D03*
X800000Y725000D02*
D03*
Y750400D02*
D03*
Y775800D02*
D03*
D40*
X951100Y663500D02*
D03*
X1128900Y638100D02*
D03*
Y612700D02*
D03*
Y587300D02*
D03*
Y561900D02*
D03*
X951100Y536500D02*
D03*
Y561900D02*
D03*
Y587300D02*
D03*
Y612700D02*
D03*
Y638100D02*
D03*
D41*
X885000Y640000D02*
D03*
Y195000D02*
D03*
X530000Y410000D02*
D03*
X480000Y550000D02*
D03*
D42*
X885000Y660000D02*
D03*
Y175000D02*
D03*
D43*
X288600Y410000D02*
D03*
D44*
X311400D02*
D03*
D45*
X510000D02*
D03*
X500000Y550000D02*
D03*
D46*
X445000Y410000D02*
D03*
X330000Y615000D02*
D03*
X410000Y525000D02*
D03*
D47*
X355000Y410000D02*
D03*
D48*
X330000Y525000D02*
D03*
X410000Y615000D02*
D03*
M02*
