G04*
G04 #@! TF.GenerationSoftware,Altium Limited,Altium Designer,24.1.2 (44)*
G04*
G04 Layer_Color=16711935*
%FSLAX44Y44*%
%MOMM*%
G71*
G04*
G04 #@! TF.SameCoordinates,0D7877E6-725A-4D16-A8B8-B6347F423BC3*
G04*
G04*
G04 #@! TF.FilePolarity,Negative*
G04*
G01*
G75*
%ADD13O,2.2032X1.8032*%
%ADD14R,2.2032X1.8032*%
%ADD15C,5.2032*%
%ADD16O,2.2032X2.2032*%
%ADD17R,7.7032X12.2032*%
%ADD18R,1.8032X2.2032*%
%ADD19O,1.8032X2.2032*%
%ADD20C,1.7272*%
%ADD21C,1.5032*%
%ADD22R,1.5032X1.5032*%
%ADD23R,1.7032X1.7032*%
%ADD24C,1.7032*%
%ADD25R,1.5032X1.5032*%
%ADD26C,1.5532*%
%ADD27R,1.5532X1.5532*%
%ADD28R,1.5532X1.5532*%
D13*
X500000Y148400D02*
D03*
Y173800D02*
D03*
Y199200D02*
D03*
Y224600D02*
D03*
Y250000D02*
D03*
Y275400D02*
D03*
Y300800D02*
D03*
Y326200D02*
D03*
D14*
Y123000D02*
D03*
D15*
X1325000Y800000D02*
D03*
X50000Y800000D02*
D03*
X50000Y50000D02*
D03*
X1325000D02*
D03*
D16*
X790000Y496200D02*
D03*
Y521600D02*
D03*
Y572400D02*
D03*
Y470800D02*
D03*
Y547000D02*
D03*
Y445400D02*
D03*
X637854Y191291D02*
D03*
Y89691D02*
D03*
Y165891D02*
D03*
Y140491D02*
D03*
Y115091D02*
D03*
Y216691D02*
D03*
Y242091D02*
D03*
Y292891D02*
D03*
Y318291D02*
D03*
Y343691D02*
D03*
Y267491D02*
D03*
Y369091D02*
D03*
Y419891D02*
D03*
Y572291D02*
D03*
Y546891D02*
D03*
Y521491D02*
D03*
Y496091D02*
D03*
Y394491D02*
D03*
Y470691D02*
D03*
Y445291D02*
D03*
X790000Y191400D02*
D03*
Y89546D02*
D03*
Y166000D02*
D03*
Y140600D02*
D03*
Y115200D02*
D03*
Y216800D02*
D03*
Y343800D02*
D03*
Y420000D02*
D03*
Y394600D02*
D03*
Y369200D02*
D03*
Y318400D02*
D03*
Y293000D02*
D03*
Y267600D02*
D03*
Y242200D02*
D03*
D17*
X40000Y430000D02*
D03*
Y630000D02*
D03*
D18*
X200000Y550800D02*
D03*
X984600Y390000D02*
D03*
X985400Y110000D02*
D03*
D19*
X200000Y500000D02*
D03*
Y525400D02*
D03*
X1137000Y390000D02*
D03*
X1111600D02*
D03*
X1086200D02*
D03*
X1060800D02*
D03*
X1035400D02*
D03*
X1010000D02*
D03*
X1163200Y110000D02*
D03*
X1137800D02*
D03*
X1112400D02*
D03*
X1087000D02*
D03*
X1061600D02*
D03*
X1036200D02*
D03*
X1010800D02*
D03*
X1162400Y390000D02*
D03*
X800000Y725000D02*
D03*
Y750400D02*
D03*
Y775800D02*
D03*
D20*
X951100Y663500D02*
D03*
X1128900Y638100D02*
D03*
Y612700D02*
D03*
Y587300D02*
D03*
Y561900D02*
D03*
X951100Y536500D02*
D03*
Y561900D02*
D03*
Y587300D02*
D03*
Y612700D02*
D03*
Y638100D02*
D03*
D21*
X885000Y640000D02*
D03*
Y195000D02*
D03*
X530000Y410000D02*
D03*
X480000Y550000D02*
D03*
D22*
X885000Y660000D02*
D03*
Y175000D02*
D03*
D23*
X288600Y410000D02*
D03*
D24*
X311400D02*
D03*
D25*
X510000D02*
D03*
X500000Y550000D02*
D03*
D26*
X445000Y410000D02*
D03*
X330000Y615000D02*
D03*
X410000Y525000D02*
D03*
D27*
X355000Y410000D02*
D03*
D28*
X330000Y525000D02*
D03*
X410000Y615000D02*
D03*
M02*
